<mxfile host="Electron" modified="2023-07-23T13:34:31.875Z" agent="Mozilla/5.0 (Windows NT 10.0; Win64; x64) AppleWebKit/537.36 (KHTML, like Gecko) draw.io/21.6.5 Chrome/114.0.5735.243 Electron/25.3.1 Safari/537.36" etag="J9pDZmDy8enHH7fa7XHJ" version="21.6.5" type="device">
  <diagram name="Page-1" id="JQNCOCxEMazKsj5zPUYa">
    <mxGraphModel dx="3530" dy="1967" grid="1" gridSize="10" guides="1" tooltips="1" connect="1" arrows="1" fold="1" page="1" pageScale="1" pageWidth="850" pageHeight="1100" math="0" shadow="0">
      <root>
        <mxCell id="0" />
        <mxCell id="1" parent="0" />
        <mxCell id="A1asgnqgY_s7y4sJz10g-3" value="" style="shape=image;verticalLabelPosition=bottom;labelBackgroundColor=default;verticalAlign=top;aspect=fixed;imageAspect=0;image=data:image/avif,AAAAHGZ0eXBhdmlmAAAAAGF2aWZtaWYxbWlhZgAAAOptZXRhAAAAAAAAACFoZGxyAAAAAAAAAABwaWN0AAAAAAAAAAAAAAAAAAAAAA5waXRtAAAAAAABAAAAImlsb2MAAAAAREAAAQABAAAAAAEOAAEAAAAAAACWuAAAACNpaW5mAAAAAAABAAAAFWluZmUCAAAAAAEAAGF2MDEAAAAAamlwcnAAAABLaXBjbwAAABNjb2xybmNseAACAAIABoAAAAAMYXYxQ4EMDAAAAAAUaXNwZQAAAAAAAAfQAAAFNQAAABBwaXhpAAAAAAMICAgAAAAXaXBtYQAAAAAAAAABAAEEgYIDhAAAlsBtZGF0EgAKChsqvn004IEBA0Iypq0CRFAAQQQQUPS60TuIo6kn7Ln8rMvfPDSYP1LkcD89HOAyXnvASWG3LUiksGseIHYIDonzlczuGyNrqg62krphAwASA4adKuJx8oEI46NKVI4A2tLYif9QUZut2YznHKYp/hMOqDZfoczeuvXQmsFXb1ixDxzJqItu/iPrHmi/FIhX4BB7/OfW4FeFECDOG+DPGY2q+K8+LDqyzqtQPcRa5Wp93A1A7G0qnXBbKn/K+yJyEm974rGYNCzjIc+x8f0hCJjDSt5F9VThKBO3A+UHvSwLuhS4LeaqUTTV+TMMiws5VE0ASMX+CD+zHqtp/NOJjFl7ZwIzUEZowT+FYsszkNIgALgQeGUzJ0Cq3HpLovi5IS8hQMaNOyvTEMaJ0IcZ6bNUGkC5bQFjsJ2evioDSftgiPrakRfZsVtQtUEGjneGgv2pSwUh0xAruHJ/OqUHPLMBttigQcDf9AxCLznFrghnnWj3NjnMhix5ypA0bPLLstr9gqt1W9+cICLICku9IXPfMil3UwkY9EXAed65WDdir4VLeH2iFNgVJeWocou4OoXBhEdyEXQ5P0u5YwKbvgy4FdulAaztMQDgFoKRm6fMleb4QAIZakwp41oLFnCusuHro3W9s+BDS+5Rho0aYZwGvC2bDhtSKxADLDPC6igAPpwBRf0h8wit3MgePjR+jqVO/zvH7jbGRWTU9kGVMXZ27v9y3/BYXN7Hn6H2gsH1p5QyL1lwIK1LBW2imtprOnYRFNRkw9PtYHp/IdgP9q8wA+dynawphkkG7jx/L6iIs3UVPhVKNvOt6l7jfnput1QVw25XWGpk6sInjGxLPoSSGdgW/2PQfy0TvuUWj9H3UuyBOhe+YWEw0RDM8GzQuJoGUnu+U9q6ymzmSKfNHKyOyQBNw4RmDmQmvFJbAUwLJRio9qwtzyZIT0SudilY7mkSjYjs4eZ7r8ERJ4BzCmPHIEL3QcDng8ztYyKcIjaOddz2Qpqnzmc2piQFmjziwH90n3LX+smxyl7aHvMpHSmpW/3Au5xAwHr31EWRWjpL4UsA9W7tTA1d8yEYTH/qAQyyjeSEi5qeo8s6SK/LrA9O1s36ChXyLQea+mgrKA3DTSw5yjvSSksCfowrqNapKLdwkt6G5YjyhKCp232Od1J3Mm0Oygp0bZ9Rs1NzZhFGHr6JDWdUX7PCSE7s33U5FupvJERmccmkQPtRFeioADPEMTf51C/wzsaqOAdLENXZ2yHflgG0WIXw8y766VOwlxOrBdPSlYbLZ7X2Fbqn87oxhst0j2oh7JzYv0WfqUNCQIxCqbDoYw/QNU+VGqX0Ndh2De+2snnLIKgNyiPdGHMtLMgw7yuG0l7QOP8owOvW4j11jF0mrOOmIg5PEd0tIov4/rJ3baOjmb9G1mQaXZSrhA2FDyiXb9KdJeey59qwndyoBliPln2PFjYOqJg1FzHXovTRRVfWeMVkpcYKK4W+1YfA3l50yrIHGM9XPzsDY1iYUMDSaLb+gCOC0vutfCcZJZhE+vIyujao7wSuJt1WpI3xG1pfthqFSBU/+v3Hgezd1MjsJl1ufvBHgz+lt6SuLP0/p7hTZLJeoSq7g/N+IsyczvvBqiZdig39EBzVFkuYWVUfyxqoSbuCRoUPJK7X5B6uohcbPrE5X7ppW5kcFkiBXj3SEayEnbaGhD9n/nq6m26wEeJHIwv633S4D50fC1qMNCZwv5zTQfvvESlk54ezdLv6U7VaKahS0vMWs2F9DpEDr+jDDBjRBBTuGbssAgeeuX5/v198T8n8sqJPP+LL4uyuTjK/2Grs2KHUCIAq7MxgA683yrsyJi2pbPu5nzlhd2kcPhkhZthBle+qEyqUCyAraSH/qhKbU3DtAv8rT/LnJEsFXQ1oms2cvYuE8GuSn7+xvGE4zUNME5IebnMCOerUqUZjRN6zdnQm4imOpFJvtgdxIS4UAs7q6UqLNWiUhtFg8LSOulzpgvo4yh4VHRfaNfIMELhoFp3mXbiP7LFPzCbnE8YXzLM98sg6QiXtUpnMMNSMJ8BMy6VqvCshWQqNa/uJxz8s8EqufYR4hIsazsKXZAgLIMjofyoGHA497DtdQTP9aS8nVnpVWbiRjBd3cMfHppbnftZO+/FlbULOKIpdTHWfaPnUAvCGQA62bgb0nwA1t0DJaUZDP9JA/g9uCNlfJWzmSsGcvXez+hBNjO+6DS5ddFNjQRiQ0W0YvS1TQOEAvegGMfp7UGgwaYspUAn9bIUA2/Tr3Jr5gq9HR5olmT/20sgQ2htJ66+wSWzVn1Ips49TQizV4Xx27kkFvN91TdIA3OKHQKjLANjmlzFVAznSpYDwvu17B7SZeGXwQ4361vEXcHtPT++1/RkplH/OnlKYwE7AaRzvg+JWd0PqFaALZEHqLFUseJVJD24D5R0VOwt91Y0/uo3nYZdq4xPlG/54Rfiw/ZZPdXGCr4L+DCAEGpI8GfmO4epPdqWM3qQSfacJzREhgweLgeOTRLbyNuOgn95aadmalqf/uQlfmbZx88T8+2K7Ib9LxM/XQnIwFmMTCtQHNqzuPT6npkfrCmdNWRAyX0ZiPfXkq1vz0Uiy9iFlvtuI+4pqZBQg8rCtKxq6HlrpeetG0blnHBrkv6QatLlaA/4KvGdFQainUWNOpGDctOmwhqsWe9VusnNfzSyrqHNREXi+pWFYvJbWri0VksrN2alekOSJH4Wi52f4wN0C/R4NY4bmsCTaTc0iqg136MCOKE7ZGUOMrCgi+kda+PubAEx5cNrv2LXy0qevQr1zaUP8LVfdwBs/T1b9w/qLzzxRj9NuQ+06eAP26RyODydzC/LKBxHgNTDIIOG1b7g9xEqvkIvientKJCscaM0152uAHZKx/D8IZJ+exa7m4EBbTUGhpXVb/ExU3Njkoysiu7lnXptOPDCeFryCOgvae4RPOY124eFBwejoUAaiJ9z9YKL4H1Y1RqaBVsoUhxdq9qcuC2TwriCrz/pp2NIrk1KhJzAkh7nSwu8GaYqVlu8pcwwkVbdib7Gpv8vTRSKHF3j/aNDL8RH65B/i5XmL+r6Zv6mitV7V40aVp/qY/qvqDG7pFRkEl98K/k4yAvhYPNOB1rQ9vmknt0zUI4sBkug3I2lyPlVlsiG/mZIrDzjeuBTvNILceQwBYldG7NgHOK2YbrRhtn9ubNjzwN3hWYMOAd6H6fs2iZB61R9YbeH0R/X/xt8g177J3TqQX8JXw6ZY/ib5oN4UG3K5X+9SE8BAgIysM9UwY9wWvTnhfD+OCjiC6mxOUum8bmthjL7LUBXt3NHSrl0v1eh6seB3BlfRm/AsaUGVsCfpzQLcF/IP7J5SM8nznAtEPw/kQ8iyT6ERRc64Ht1nY4fPU4zyCDV1IQTkjaMf1BUKCxs0ID7ga/Zh+sjBrBWuY3kMc1K8BTuTtKZV5x0e+TZGKROOL5Vfaxm4CG/cFt9/84omVCZE6A+qzHFeDkWk3cwnUGsrL/R+5EEOSUQ9peAuomVgGc7Ah3Z6quqDJNSqwl2Yr1OqWHWok83KG/howqMAidtgqMnK3MKM5b1JczJqJNN2ytZWK/hhGWRVkCCWfQWIcJkIvsz5+7ph+01RE9KUGHhM07Z9FBLZefYuB6NyDdFlJrPkCu902GFm/CQGinwq6AU7plNsrX77aYrPzOv/W1MO16jFEBFTXOQSd+ENTtmUBqY349XlRqR3UyM8/jIHQFDqATONgH4qVBYoirq1qjn3I1I5CPC5RbC0Gs5Tgtiy1k3ogHP4TPUZSWv3FWEf15qjHWrTmaFrmIkxOT5AiLSYHGgHiAPl2ynCJKyWekGktMSlJcqoUmYlxn6gXY4E+CC+3lYxjpDUVWXUk471Sq6wnV0hfdioNfo/d0u+QgBbw9Jixt7gvCwbTQIAJfZdbTBjiWdMwO/+zZE7RLHzGlcHXYFz4HBvXJeIOJjCnEoLjkWokYW6GE/UqNld/QfBT0EcLzW5Hv4EMzl5t663K9GVIk+l4poeVa/x0zbnoIGOtbdHagrfgPtKNJQn38dGOcUspuTVQUuQFt++gVBUepMcwCxh9wgJ+AhQh4i9SHYxE7etZJnSPPs+x8vRdYWEdHESqunpUhJVL+jblFev/H3DEr+CUKUaVh8Nre7NfYwXcLllx0hjEXAwpYzRCeW2EOWQ5zgsWDB7M9HZ2RynBtqJQ0wMZWPahxSSX3lW/90qXIG/1LGhg2wqudUZyut55dkoq7EGPn62UxjJozztpBH3MfAJ1rro/P40kwvHo3GflXLJLw27Jn+RiYfGetktZOPvV6rvHCoZ2fuw9XP4mgbJUZPSbDan7gl/AhMSIMXqfXVrSJx8fPmLovXwg+yyCb6LUkuP4t8w7xkOQffKuwdf5lripCG2ppstZ+iv2hFOZTtmzGLDbQqqNt70aIKGzrdDz2B6eDkhA51uSgAgBs/IKTbGNIVwvaD7Jj+uASrwflVC1/uXjDGbYc5o/0yFCQjCW12U4ITwiKpP9Zy4njRx3w5cestce7/eiP/H0QHmqkTuYf8ltDTDn31B+HlbHucfwk6+mzimlmlXoF3vR8MHxVO6vQ2TEheJgBcdbjBMc5P27TxYEG30pfsOHTTQG2E0yVgXBjWscyZfxHY1kcBKUO2oOhYKm4WpmboNuChZanK5X2kLDV6nSiUUazNqgbu4FVpqmAKwHD4prKWPGekxIRTVz03F/zqKiEFgqp8FqcjDZEiTDrbFvmeNW+1xc6+uJn3G1kekDj9JOR0mIAi7bnZxV2A3oBDexiQ1IJY0DlX6W2KA3zAN1QjiTyB55mQXioLnHF1uOFxwBcmPh4gWq5sOWOtPL1uaKpDIF6cIn6M5KXjQOLJZ8CzQ9ZyywIXFMeucaeF60tNvKAHodEgOsE1LVEEI+5BzMGqMqQ1MDJeh8TVa/bD56UFeOuwwdesYgy5hv95P/ElcLOobP5Ze99fZkf3sP0SQTEJkSqlETiSf/0UxrUi7ZawMRoumt8h2ndqMkQWipJQaLSRveWTUBj0XieeMFzRNZt1AhuZGKqs7QDPzrGH5wzV2QRrMkAYin2Yl5DJbHz51dkeK24ZNmpTvIuDxx+Rst657CmMtvEK+VRBIg8xubFZeNPp943BuWghwcQy+oqZbyTzEe6P8xC2kmZaUAlXLTBF6FGI0IXzmcVEmuw/qZhvsTeP623nYvQpFay16oMCPiWMukjz/Ppw3H8o7dnPqlmdks+XnCj9p3kzEVT8FxZH0bRUtrFUzSYsnEzLs6iJwYfuN/rFDQihsUePLYRlq7N0/jABysCR0l9b63Jnz9l4aLRnST9WglI2TvazWt/GDBGKlTKbeTg62rkevCsYos66EpBWMnjLVmyHeOJiDrDZi+t2mKT1t7a6XcKFeECqvDhLb/eaonht1D9oe1O/tT6aklM0BUEZRgHkCyaIS6iyZuPD7mCCZH/8QlXEIYHjWmLuHlVgLRsLrm26k6T+7Xvdvi88ld2FnWaEkpVmX8/bNIHWjIFkCl/tieR92MqoPOfnAqDQlosty6KHOp/9qGYRgq4ryn0k22spVaWs2xAZibtN14bPD9DLFUgZ5sOKCRlsUzpwrNvHy+RdUdbiMWlZ24RhucmfHUAGYz1NgbHvrGauCcszTLFpfxVyyhNQ556QCPtaAvr4sf8teHZAB/UTEd7NydzF1KFAg7+vQdpNl+CG/vZYNohYHs1giPBQ7Q1YGlihcCuma5I60BbJj+hxVNQgdEYOpER7NDaJc7kkJulWOc2f+tqOoFO9edilfDjgu3wc/UcC0qs5dWGmYSATMXbNXVeL8b+YnxgZ+gnUuwjYdfLDJJuMFEseWNvnjKs1moMnGJfzVvXvm9D5FiLE7d9arIW9VIaLtjuTcedT+HXulv6ko8bi607v3TZfsDuJpxSlpRV4EN/KbYQTXQ5jysptN18tD0kpxmKLCTn3fB+Hx8Vf08kWdoKyk+S7dE8KFIFlmsdglf+QIGMOrN9i70GAM1wIau7ZhbeewMRrSh9tyAexqzm7n/JbI01RHYIkl50aYFl7h3AMFq+vVIRTAmOJxLZa5D3CATCScLtvRUxjqekmGrVod3jOSntSquDnS6OeGZq5o9RTwGwuIcQ6zYOmHU9kcVUtrnOmc1jcp6znBnLeRKb/FIqs+ymaRR7TQ6acrwAsd3TKGP2W+Tc4FZoUxckEBPOMqE4unUtP/Oub/FC6oNQIWzuIMLHbJUEFtY7jK1Va5xE+RccHmgylQVH6bvMbmdeAKFrcla7JA/ak1bYFPI74rNuRbFVX37VlpkRd9qHLj//zg/19N09o6au37E6S88CVSgdV/qgx68nFjyMCvoCtkC7MqJYWJ2/4dkJ512VU5i/xP+HWcM5796K3mVdvyx5d71gzRh3CS0z/Fd52xQICdvhpAnOkVxARGgeRG3jcRMPcvJjLso0vfqtlXEtrtD+qZU9AY/zFKwCvPegKwyMd1YM05w8r+qjo7joUzkttwpx6soqnr8HafhqQwqhL7O3Qq7HHO1WDY48vd2SD4x6qfl67CvT9TKeSoodVrLPz1Sp4m8gKctwy/YRtEMrlb7YnOzwQFAZBIGNdE5b6kZHFkjtO6isuH/qMY+6Gk6FLlYHtTFEIwDSBuVuBE66RzHhyR90xQKLuECaylutwJPTRSDzAXXNx/AEXOPnJELpUxQrkBbaknkHJka+DsSW0Tg+TITFkuwqM384BY/y8GQZ/glOH4X7AlyMFA3wxmVMca/gkx7JXcxxLVB6V6UqUOzYDhvin7Xtq8LAVLkME1Fo00FPZlfX/iPknCF/eFcOlZGEPmYF44lbdLujBzCkqmSPWx3lQZNB1PBvQuHlAzQqnsISgGrEBWbe7+SSvXxMrhMjFRpoAVNiQCtzB/HPFml063NzO/5rb0NlNr5alkYVuatNNWO6tv0Z/WgE6ZKOACXE26XqP6pgEhtTjEtIeGlRKSwae8liHyyo1nYGRU0WhKeaU+XLA+kyhdeWmY6m2rNVQsjboYc4n1yna+xZGTU9XWhH8seUbYR9m1Kcr8cqYzFW6IBkMUT6aPXv03EXmFfZiUH6Qk2xcpAy2nkeNERHOqj6N/astpJUle1SrIfyj5rRt86p90CHBwPxigqPHcMlrCb8qZ8fUO1wqT2/Pc5FE3W9cbrs5t3/s27J66zAv1vJz5clUoSIjtnKFaVMxuOZWmP79CQHvEvX6tT3Vi37hXhGtGpF3LR/hguu6ht5oUZveHu4ERAIdOr54rtGlxsiNOOX6Rmkpfo30yVJ1mokq7dc+jnZBuCtqFWKRjmRY3QYCP/dJC/7xhAhEwckbZMffNfOJFzsHiL9akeKMwEQ6sLj+BhYYYqYVZ4qjs0vBlKYlQCAdcWcsl+dgBwuF1Zbb8nm6cXHCv1jltle9y1pPfqA9xMCk0rf0N7/w9enEHWF4GPQm5w9ilz3Qm9VF1dQKma4KC0wUBHlC6IrkMCaY/P5j3NhJyVTuloRk+d+aLaAmMK/M9b7PSYsHMI3ABspRHKxLG1fkeLbAitx7+bAnApbMYwcfX2AKnK6JB+nXf7s1iIWVj1X3OTciud94em0F37vegL1BO8IT3Mf1SOy5ia190MJHSWVAVdA93Ox8y10aVMq5rzw9Df3gUUhSKTu99htAB+KJKoIMx1PsN4WOvDc9QuZuzZFTDAyV86w13NhUTEmfvOlxBlXHn8Vnld63bN7lX/vD/yPuJ2c6Gzg0eqnV490jv0DBecFb+P7uIJX0AQ3/Dtn8tNTetkf+InU1Gm+XR/fj/XOcSYeVzTy0IMZsiuDHBAXwN1x2aPxjVPCgICpPgHW5e3zDZSTRz9L4pykN7r6RnPXIcSnf3b9yg8qyPun4Aye8Jwt4bDQkpsChevGRXeG1KW5cD6qMs9yC0IIEaSsYIbM3Q6jUN1CrrY+n8kcu6NcGCrLktwIHJfb5dSL57adAltTv7WomMKMwem2MSdL7H7f5pMrLk+HuS/KZyb/Bp4nj+21rVj0pVRyGw+G7RnoqxoPkyhi2R/TXqc+XRlDDQnwm8I0rerxQfkE8S99cYz8G6Gk1LwKZo/1+icWpncVRUWRR1ZXis/bwyJKqTXDGcxEfY5HWMS33o8dLpP3MY7pLLzSjkt0DlPZ1IKiMmJyJ/E2kzhk4R4l2SGvm9bYJYz0dw0L8MN/e5t5VqQCiaAfgb92ffLqT25RoZwDb2DdUmyjlOxX5z7c7NSPPddt+nB4DdTsFNFBygT5D2/hlHcWe/IiCfaQRd7i8BuGrxq7nkWvhB3VJIfbjUf8BoISCZ6HTZsuDoVye4rx8GdlBWKCViyCYCfZnJ61dp+z0jX5h878qiGsQr6ECrYdvH7skADoqnVDBeBSV1NrFUH965OQr6W0gKYNWkNTrM4+Ax8OnYm5gieUehRkehxF7wSidD/QpLvY6KGx8qzEzDzgCwg9eYmTKbPI4/J8yhrZsysx6x8iLuS4LeJKnkODUo4uda3jKviUr3jN2nb/bl+BYmsijWFW3/uKfrv0k941x3Q7Apte20WU6pBDdfoGELz442oONWq56KoqsI7vr2nkik9zzJYfoNX9PgZUAbFJCO9ZMBmnTNnw22NLfxNEoB0Jf5v5ZYstdqHtxH4PPc+H1gW11wWs5CRIrrfbcQIEDxgpoX+4ov+Y9StgjDKgHqdTZcMrl+cJ/iCHPCTKWWMYzIPjaQFK96/yZdcSAsubYaIyDFt+lOocSSrxNhJGulkhDSnt6X9Vrl/xQpmLtL89Pl7KnaMdQdcIHHNc40wWtr4+lQ/zSrTh0L5y7ZO/ZgeMnwNNdzJVT2QZ8oB03/iBLucX/pG86TBNfuMk6TO6ncmEm9k74ubMhxfsLez/unLufPzqonQYfBt1WHhr7cyYu2GbPYAzdkYheHvuJL6V+RGuHBGM/mNjvZHcISzdB3AlNNCU1XXZ3zV/l1/rzp77xXfR01RRlu0FvIHpSz8Gw/+K0rMaP9rPhbzEfFBStXDXCo8sIZlD4pORXl5NwxLUrCwxsc3msrE2gsQrKcQ0ZFmGrceP6P88yrxvCRRs6kqG+tEQdrr44qG1WcYZOIYvUDF288nZVMwOStdrXBFKuHWD3foUZ9ffvTS90gzy78GHLUn2w9LStTAAmo6MooMRcL1zj9PVTkE6cGxDKJJVcKaVgykKX6dy4TaBqj51kRDJYaNPZgSiMTOvsRgOco64HnRnbwLYnuZfa1961wiuc6AQPihd3iUJUFerkSrRlw9gfpxaDu2+81KYQEhnt/8a3lvCIQqS7sKVxoDDHzY1YWw4uwAeJ83432LHg0Rm83w/RcXEqFECwFbuaQiSuL7w1UHIxy8/Ktxtnx5WN/fdX/wZp9tSe+SuQhKgNT0rwWGQyy0sbBrwauXniFMKM/28KxR1wtIkBXN7bxyI7wWXsvkufSCQKoMNGoL+quQx1gOo1U4DX3waS1ZTE8P4seGtJHZD43ktKo2cd51JmCW9c1IzRV8/wrmOkoFvHHc1P7HxcP/6GCuZT/EneGibeheFLAucBClVQM8DQiBNArBXvefAUYWEUD9eNCJuco1LTZjiRof8Q3PRzPUV7GB4/95OKZASQoGFi7lqUELwyLwzJq3Vc2hpKeDKbUeOEKs1DdU+C3ezhgLU0s6xEERKf9d7thraz0aGDqkkJU0j/bM2X9dBwaNe1TpkWiT/YPKfbR858sPb699RaC5xjetgcby5YQB0ZXFf7k4f2H1vjiVetdZzpGtbApKePUewiywK98YyKE46fnyvla3+Ur9ZaoUPqbYNaFwE0feFAmrb/ZvWFAYNGlx2/8L8a8vE1nck5/l2gLE9SteJWx7hRjMXbUC3Mxf9DuR8mYgAu/9Uky9mf15S17COHMPKjuQcEq6hzZQ5Mkn+gQiWWazgE15NJXjvem1OxAxArKper8mhkfkadNe/IfubLY3U+MdxNYinEGB+UfmndP7Ky+qpEvKTFhIkV/I0xngqswHY38CSZjeMOmK/JQYZ7uIJyccoQXxvj1jIg/aH45+cmHw7qvvfl/z1sz2JCR/9lb7jq6GRiTlT/pkXNmuzg2W1oJ6L3G+PfDUneDXt+DRUYQuzEFHPM68n1wvHBBb2Zi7ZcsE4o86p0TXMsWsU52EjrDeL+nXFaeF/xVsxp4uV1bGL4gBGzgYhfUxLlUVthK4TL8LBsnhZV4xebtFbKGZlEB1xJocLoe2lvRNq1AONTsDJB6YmWZm6g1FXdrTx7dQbNd2PPwqbG8wN2FP5WhDTyMOHjMMJU90cFxk19UmwFOdSNxkictJTL8l2YEUI3PMwrkRW9tDs5CD6scdnI8Wt16LeDddJg0wuNvLC05YlxaFPMYVrgFEUOG3Ba2mL8yg/7OAdN0KG43SlUwtvtwjnQMzmevRvwoPVOqQZecDxinJggde+u0UWp0Db245MgBRRQI4SS7aITY82jd7/QBuBfFHtg1v/Pjyrc58JKtEojDVkTOvhNiq1OXBLAIPlXtR+m0OC7ToHxKHOL8hBwDsai9HcvZqlIlAp+M9Hnb5NTLvR0kLkIen1rzABgiL73K9gPUS7dESEUdKk6pvDk3swGh7N3IYk3cdBwmvAbe062gCXj3b4rGd3DEi6z8ZqAXX848flwhCJGg84K+XAUkKzapvLnXQPBQ++1H5xSNNXEhmkkvn9SMOgpBBhy1cSfrVv7nGdNwaXdQyIGgzHvXSCS3jts9/WHubZcibjcTELtlkm0Po8N9O/L+nAJvt+4uEY9cP9R4KqXJqC8x6thCYHZsyRiPQPivUagdactOUH5l7iwx4hl9aziyisTTWIdideaSr5vOxl0MrdXocB/JtGQ5Owmtldh0DUF8sOLiFDuvmK7EHHk7sCfoPbFkDLCkTYLkEzMONRfeDv5eyhWjLBkrMLd/OQvtuPhnPxgzDdma+7gPCgEcD8j2kO9G0M5QeVCotzPW9oiQTT+wHBFcNHh99ewVTITZz4qDbi2qv0pKupBrH2LN8zuNg1nIhkG+gKnXitjJGVyQdXu4qgY25HmELtDJsypu2370gi4lmH2hPf0ToZ3i80IKd30v6NvR68wHPiZCd191T33fkaU9riat8a7Q92D+r8O8+VhyVgrZbfsYtZuZMDN8odfrFbT/nIjnU49OcMF6Ue3JzWkodgx7uDkEilKJJTrBa9m9oTHuzzAL1kxVbsEu/Bh4hoEHYuR8i2P6zMCAAct07qPRTeCI6n3rLG4jUMGkfT/hhBMIEqp5hTATb4AhsNt9c3sjT/zKIDoWDUGBwKSgXLZtsqLZRCM3W5onhUeuFQF/w2Rv+AXoUhnHsWtp3KTviN4sByRzXrXfXZzju9GKaYQNeNneWe2x45Viu4a5Cl7vS+JCHVvUXebc+d0LhhUu4VcfNpORXAXXqvofklr1tHA2gBrO2JtbC9rxoW5MPExWaY7N7HUXkoWrO9dDhRsXkQ53qsPzbSsvuqo8yuqsrkSa7zwKpqmJc0wKFrwu3kh4brOcuIFp4v9uDGe50Ic/Xs7wPwywAOqYnGqggpSBkReLYOpnCr55zItWQf9iU0xmXTm29/c8T4FhkcLbpmgKvr/cWzoc5YfhRUPLjQ4d8AsTvsTZeJfR6uStuQNTlihz5YDLYCKMYHzsSCIH72+lTxIqRRqui/9r0Or4dA3tvLHmdaVP7ag8IXTl7UAWe1bKuk/HA/xCy4DiFRkIRYTCo2YwD/sDOX0lgMOjgSCLncvbnsps1Wh+HrnVRRIl/NZ1YvFOMkPwx/f94j8xpGCVuinc1e4anT/P718gbZCgt15O04eZW+CxQjxzJZWDy29ZQCFxwS1ftxrzjdJN+HIJaj5IPp7Y5aKW4AlwjTCuNkzpDPOjeU3XLBM4JfRcMV2W9279pllfJ9zMzTOhoGltFSGtN6Zfm52QHEzIuLdgiKKett2mtZg2lrgIfGD+yMISsvjm/3bREpgZAoT4m5EibsGvWTK6DAIed1poqeSmKIeMhJ4BJ+pBuIF+siBgnq+sbi2WHoC/mjRLxwxWotD4h/uXLCEYpQF1YIPcfonQ/2eIuUqKIpjfhzbruhtYVDXXwmv8xPI/1eTCmmZJ24OVBr9HFwT/VQj2Kn09iVN8zn28/FhYkVHysQzsOGXz64tkogIhSk3mIGepFERcEOEGTdagzE1PU686B0F4h2vWctKbbI+UTUS/X/Araf/pcIRIkZD/iOFIFdVzvMRX+i+wv/Y1GUQ5/EWQ5KjcEm9ghKFZyYx/cZj35ZWdglvILS1M2Q9kSXsUjWyuTxA/Lt2iWSCmzMwaxaP5zdQGA2aokQc1vuD1/Z4r9UYJKVE7nnlVMF3somyEdzWqTQOPwmS1j8ZgqHdRbjoKKIgCxrMVmq7Y22UK6O0N0XD4HmafzxPquCYwP5Zj9Cw9A8KG1WqZLLj7kMYPtnkz94C3V8FMIbzMAK8RbqYCa0uyDyeFU/dopkl1/v4RHlAZq9ypn8MEbtGKDOM0DHmbRzGqKd6gces9+CgOCTm7P8sLoGKNqW+e0ETFex7wYUV38L2ph/beKaM4cLuuy13mFWDlOnw+q0bAIbhGT+uWysZj1sj6/jQIG/DDpu7KWQD5L1IlezIHZ6plGMlLGmmTNSz2dvQidRIxepbiVAEYBpJu+DR+8lcV6HoaVCH2YqNzmeHcCgEurde6NqX28Xj64sd7wESSX6ACP8wDv2iAi84HKs1+hYYjpwJpoZvysxW0lO7a4WB/OWDQkCEYw7ePGNBMwBOQIOOsxxC3YxQijYpiGNo0eC9LnzP3bj1Tx2JUuavBD7zmdccKupelJu5SPJfP6b1n/d1FWS4BunIXtOvNWfTLrU6xN5yB7em0T0wv16tXNgEHzRQARZ3fQKWMR0rjS8c0PMrmA807w52IdQrs+Dund6W3QaWh4p5hps/zQldxmBxg6UIdMNEOOjwpRBdg/p12TqVals2qpQ6WJu8Ru6e86qDdDz/VRg/JLWjABtoLRAcoVEKsafNFqG4r9pfy9tl3p+rSFg9XuCTkYFt9ZA15aOXPl+rs/tZsNu0LHEwHyq3QhdASRR4gf+eKSCG5sz12AZpFVyBCNES25hwGmVV6qOEw0MtE/iBINss27pM5CtPK16taEAASCau7D5Y1Dv5G9P+i77nxR/rAmnCd2/n+6PCSTrZ32ccPw1UDMApxk3jfhxZk5Yx1OBp1PiYYn9kQ2bYCXRU7yornFSgWV4P3GJJVqZrn1uYRxEPmF83F+Nexfciv4qBJ7axnY4JgHvz0K5BOmzTNMkJsaIlTsE/M6Q7O777zRSIC71KJf3JPptMnH4JTppOQ6YA7S+Tq9TrnydxxUEhflkdgFtvwvXiJJcAmWo7kMesLIz87fgoPoQ4pFVOfAaA2Qjz6vgD3R4uEKpgLiMQaiJMKdo9QND3F7HkOUWVPrP5+mB/t+SF2Kmi6EJYRMDurKDNAOV9Lq3KdgRB2/p3RpK6Pn+0FzDzKEIuZJO1DGv3+UHaLsXF74wJS6/2Hs0PaDSCG3IxxqrDngg0dPFqMqxZKD4wMp4RK0/G3X0RheFa2Yn3cepRj4CEtmr3DV6LjgPNdjR3vSKGOx1tpGeQnIdteH8Psf2KcGkxIqC3Sa/X4HLeGSzTK8JnhodMURIr5LroCQLWb4Icc5hdUQ13pUyMsR5uVmIbNzsk7arJUlXxfB9f8EPxVc2vkw/jtRpf8UMi2zw47WM4Ftp4Zr4WoEw2XuYOXSiKqGraw/ByoMc481DmTgY9QdyBo3YPonNE+1Eepm/1kAtm2MxtSF7UFjGx1FqqIe9BBHYluYYiXC4F6N4St6ixawt1qUkBcrQCSr1ufm1Tn/aBk3AMoWRCGV+ICGl9Wecq5m7pGd5nw1TVkJPKEiQ6wnaE9Qmvr40Qr83SfChdQbj/pggqt1+sDh8w0tpqAiJTJ/RhgEB9gmRw2P1+dgVnLGBBEqzUfMBZI5KSKn1ybHRSWZIjoLZOGGEaFaHHFPwvVvitbQAZk74b5moMA8XtPywq14LtEwK49zzHRiAP5vNxedy9zfHpuhNVIu/wDoRGjeUdoLMZQFJXOYxs0G/ksqoUHbtBGui45bsXr9mILGce+SL+Je6792iakAgR9Hz1YdKw+DjakyqPDueR0XIQZuri4g8y5fK3haQv0E8ErgovaYqWSEgI/5FCqqfHJmvJiFaLL/Kuyf62vVPNJeUWZA6zGHDyCIwLntCSzYAY1soKWZ8Cuu7R8kk4Ix0DVEb/uf0PTvtEZ0haMCIaFB+bJYIGvf1nBLxzxp0ZjiAP5G6fShqwT/Wj6Ve84P2ZEjsg7cSC+tH27EZ6GoLAghIWDmvgavXomO71BC/t3+7HU5YwSFnT8NwVFeafkyCZsJaWW4RrVZm96sTNq0bZG/7h259XOYLkaZcwxTj7+VDwVou6v/V/QeOVjiAfKfIO9oiJMPSiXVd+oyOCFxkJYboRMLEeY0M06KRauCu/JMN1gjvORoE09Bw583mFeYCrm3/327HXJcYKmBHMPkb8j+5qzR/hlYZILrSbQ5JlcarWj7IO5+HuPX4aUuwWk1LlGI4UIhI+VjcVSEcUVzjUeKkZrzqPDcEtVwEG1O7mRx/vIo3U36n3jiU9c7l0Vr9ZdtX5lvxQFeJrHr1yi+hdKgczGdrQYwWtZ4l3kFUwC4G3WFbWMPViyMh+uClkuhneTKFTnZOSUimHKLku6cSOuFtDjpwrLTTDS6HUAskRRrlNtUk+YpIjZ5Dh2Lk3HlsmIim3ZRI4hvRpJHs+kyd/VykJHF+r3uWA9s77xRwCs6f6mlOndEyW1HPpevRuvQZnraqufhLQis4trXjLN7u5ach1lsBt0gKy7piRV3lHMNTBV1ZGQabcOTrqx/m6MOYYurmO5Xw+h3KT6sJQ9gicNZ82nWYye3W6jxQev2vm4Be7wx7mqxfFUdDE9OYBaIh0w0Tqqu8htZzVnUWrHHxlIwpGbmQLDblWZOHkT5qxnd1bktZiv3YysmYAJR/mCTPIsrgOBgzGKbVJf7UjwCrwdANweJQAKjXt/GWR43u6u71BihL6m+lCLKplJk4EWmrfEIM5nQybnVIWWdMN4Wz/c/HXDAaOZ29GH4LCD1XNCpFB4UrBNWK4jINFjXYI8uoyr7jhh3rdbiNqABjwDWhL+xfUpHIHkYXpK4z8Z+bl5xXBYHptQsoTYt4/IrpU2aOqsHBvbMfd7u6zd+yclJm9Nk1+Wsb2Ou1zciiAjtpUBK5pmO/ZdB/OazCM3z7DIWKJYKdUMeSUflipv5dj/75pBikz/hRzrSKrdnP9uHomou8LqXwJgnbPlt8FBv2kPm5rK2GTIj3/osRcuibqGMOIlrBwm0pCtcm/mMkOZUe3Fcoeh1Twb8KBG0NUSBahHjnXQbt/SX7O3AX8igoxgys7P9e9AvPkgpKWK1vCm18TJ4n/Yr07aJtFPU8LTAh/OyFin+pNvF77tB7nAiGv+EGWj2KmCzLHsxsqSYNRoesWGNApc0PqixwOPUCUR7XdjnzVAlbAEYOj/Ct5jWHCy+RCuqN6xkdDP1gssNuXhYhQYxidnJ7KAE2z6DoA7Q0ufVealrjza2k0h3eNVMgNpwWk37fInjg3e0BMwrCtpXsSCXskc788KbBBgq4iFu+0PDp+A3sa4eQcPlkPFf2vMytV8ALMrr4vXRTAFaar+EB/92knxh4UNhO+k4IauTtAfIydgilK4jD4a5YcycpCetDjUW7Su5dKz10pGlaZRmAheGvhjIEWkg0KRcnbvLZdYJqLj1c69lsF8593tivzBtpOUgpQKdWJDp5F5OI+f0VQpWzGL7zyWQoiTuHqgyWTKFGVsNH4ysM6LfI6NKQVmwOgf9KraDNThlEpOhRJdRa4fsk+kTuNHxcmAlxfPDIP8+2mGtLGDBGdx5a6jJkoYLmBIXtsx9gOt9vVlwF1UpJsCU4mvZaHxE0mVZtYxFpkXSmgCl3CpkFZobGeSJgL2xjwmcjq4SVpMgH0QbgeXf0MYYZfhMSVfAVyzNaKdSFRdHhSHpmFls2kzB5WAERDaiHVVOvm7QcmyRuMRaKf9G82QkGHRIDFiewVpxskkCvbZalCvsHleLH0OengtR6RrTzc01jWPRH8NPrgNy4XFPK0QtXbXFwMpCFHkVJ4fODltHE8UDqfWTZjzu49VvlRz4Cznl5VUmX7cnt8TuTZaiuACTqLfCVt+QPzbf9EimI3P+IbKRcG/hiPIq7jxQ8beNDot4g9H02f1AvEnM5VOdy+teZwsyIPSwuguLInqELc0N5LhCeICDnTXe5oOVTQposAFzGliED3sdAdpidmxoXQK2uK6kUTCpQJ8JLP+P8Nb2sgPP3XnugkHlB4oMnnj/joNFuSqVTOjH1Kv7MUJZbBjpHgjMpS30hJohjLUgAd1LzJD8TPY2+svBhc01EkeIpa52MpQL6VPm3usjf8JRYVCpMGYocQY9S8VxvNwoJlaur3euff0XhJ1LOdjXewC8fyV6CixHMLmdkEZC+IZ4OtxZ7W+INqh1P0BloQjlP2HwoYkh/Ap93BeSY7YW1sTkfAR+fiS/mGFFDvWnFXtRb031QXlOqxXo+pPRGB+03jG/SkDdjMEOSn92JLQ7tHz1piQJEwB4JPVmYUCYqlqUL8Q7PUGuZ3MfJZB8/OKp4xFMsfF4IH6SAqPsUgZurXpmr8Uvrq+R90o3ovKBsZ1tQFBi7eZPTnOI+wn3Q34QiJQewnIxugksf0cfxb8WZXD2euqfleHVprq1bRARdgqRhePREFPVKCJvKyEAIckPG+ICQz06TlqpIeLvNoIRW6UQSGn5s4W6lLAJBFk37sOHNQpE7JC9GQFgeJ9xpitKyVaaN4VqZxmZDidRBaF7mQf64G11mmDRGD4nLh3KT8+Pv3rSsj3dXRLFyfTxGV5x+l1WeUtwHy6sQKReo56i46GXQoHomESRl2zvCGZAb0pgppi8tibeb7SuR4jZEF+84aAOjxKnvctjQRBPUdfbXxSpq0g41/ueMJyNNTz7y/R2RW5VJ3fJ/yYajXZo6Wtgd0PDuhiqOMuMH/3gAEaRAi70BZHS/McIKZo3Om1VPoZa1eir1v6cwT6vsfBaq7Q2GMXwH8m8C+KmmzR0qD0I00ExSlVTHtxTuRK6Z0sqiqVFjldLBBKhjBNTUHTqK1/hn91HDHS4ybPBPvP397E5LdwR6m+ITrIxNY7j8n2n6xubyE3WFSYwErQdEnUZ3F1LBxcoamderYjyNFNVRfXL6ZIO4oHh6xj8pm8soj+D2cEwvV1oOBlvMWDJtNsKPgHlZx85p+p6Beg1APedHWjOfXtKk9dS/Evs66LlYoMew0fBK7vnDab4b+isB6RYz+jGB37wWMwJbRp5EHZtgf6PXcsOmKIQCtJg3Bc6yIzRD2aP2cwiQl2JvJQLMosCsJkZTqJAU2n04/4JzYPMP2T99vWuAW3ZHoxcq/UspIIqWYEJZS9U5fi+KIT+gJpBeqmsy8WNsgOBdSALrlJJdAgcDKiTThbqyEdNs89dShRwyNkhRJRTIXSlvw2Ql8rh9z3SmBfJDmMGDe/HaNiFI3nWO800+F3Eio315bB34M1PUo77lgD7A68oT62S9qPC3CzwTqI9Uy0gaOhh1Ok9NIKCmGIQi6Ee7QMqyaAeHxYJqUTcBK01JikXUN3iBEB8vggvEkWmrqrNHaYW2u9OYFz0QAUR6K+kAHR515g/Q7KjPNlEdeigU9mK5Oyo29dPFxlIchmU1Jb0ndjRWvHFBBrtENoHuV33XLTflFtHoYaBxGE7d9SMWnB/t62fuD0yT9GB24y3ZU8ykMVYB4rTGIwSF3JbqdLdcBY8MuNOmILzVR/OSXNRnTg7aexMYEu5ws5X2zFVKeaqo8dtKNFDR9YtrkyUIU54HbOZqjECNNqS4uD6ay/MYAf11fr67RsWdaG/+VDOiyCdNqayQu2MfHoHQ2Vg6m4kcH6Je3TJhOo4f0PxR7sasDE/0CUlC///9PKIWE3Hkf1snaTPFxtM0073awATMjK9O480fT3LqEe6mEuAuwvYve+JUrKA7NkAynoiTdyNfSXJdbMMYw8Awy9UCHSjWe1u+OrBYv5zvX9x/ZWypMrisJRsp4P0qf9brppDUyOEq6+u8nnNAgGSP6yeDk0UdrV4Cp4noCUiPb1rHw1UHY6kURkqw6cdQuTGLDvkQh1jEMgdPuEtpYUKDI/r7f7n5JgMzp3jnmHjQKR//0MrEblFaR7Uqs5Iq/4uIRKraiowl7Jx7DruZfAND/zRQHhopeyx8YcmLrO9IFg71676W+eIIvuyGWvgZbVJGhgw0Rj1Ff4yHsUZDFjkt2cTmxSeTyyGrSB1LDz/+Sz5zPZambA82ZRlCftbfFgOObstWlrAzTPVVAVvDzrWvhLclc1FNEL/Y0AKSUxYZceCaGgb6k9QeUQtoyulKTN8krXXhPz39nQVkg+rX+RVev6s7Okto5ntJsCBBlZCLFVwqtqwf0W4nlNOpofQv+qNJX0eAuIr2IhMbajsKTwBCudOPzq8PSXdqRrMCzoaiFGQ+v0A7xqiugGGfvdOqVLn9bZcEFFEwkeULtYY4qUA2ejI7GbgQdTs5IQ230jSzJeR76JUwnoM+ZT76bcEKLLIFa8sNydm3aueWiI1ePXmEFlhOmXMXrECqJ9sX5fN7ShX3kbvvT68uVhBLsVENd+UBcYsHpBmDv/mj9Dvqz7agX27UgQaVWhrpEQ4sLWBEuMUGuAumm6wGRmCIIyiCaYnyH6ginULEwhML44fS9JrR8sPtdx524RSKtVNpwY0mecLrguCGENXVRCDB1YMT5hZNV1xWseEbAyrWHaL45aNBKnGz3JpjlR3rK9rjZe0NHJeM7J8HJ9LeMtrxBw9L3DH4Gc39FhMMY7AFadC7fI4ML/W4w3s6tTuct0XH52W/Whi/Jpea9if0+tSi9B8bGqdrZLMHWDQdGReP0GdVQje9ETXbZnz9jykb1bOrLSlwZFnZ2onWz2p+wXxIyoTP75Tydm2ApuxXG0r7T9yUeEqHnBXax2QCYHePZfAjy6314i9o1IUUnEiTiiTeIT3w3WQ87VPMoQAeS9tE9Bt3YM5U5dLFPiDPKuG2OAyMc0O10GMTVhAQdX+nOkd7aQqu1cuHbQbprAMLVF1Lgv349qGq709jMiZE28F88wByip9oApYwYzTgmHJip6smnwFYnmFzZ6KI9Np3tX9vnZ2wLLd+sLbJeaPw0ceH2h7uUWGKjmQTgZJvOJhAtzXlH2DIxRLbKyeVfmwQp0YEYE41RU47/iwHHuwSaMZL9AbcJ5SgBPiaReQhDinz4F6IDE5GFdJ8GDfZRG310/Ny9g/SqGRKS+gI4+TS1zTNQPPo72NgxTYn/9Q8P9y85ASTeG3SYK7KIa0jjUxs62hm+nOge3yxh0WnubHoieWB4zxrPExpxlFPRgCyDoRquSYIC4a24rXr696oyFB0bNP2iUGz3O4+NTqNb5BH0e3Sznw2X/dl+EqDBkyLGCE4AAEPgABZ6iuORzYSFgXi2YgVSnrprhYFR+WtRJjtpGk9+S4mXdJ/VEd0wugbZBeVoFZmEU7VjNBw2EIbsYW0+1Qijf6CW3AMUmhezZA21ZMNtQbxJM7FzburWLMBYdSit+ey+IJIYbE9ymkzHXepl5w9k7TdN57okXUddViSEeKm1b3PTpHehOSo3G/6OGN1W5xGXzaMlCkoLxo60/idjUjVBYvWabqOL1lMEfd2Zs5lnsSfYCkBzSCPFhQ8IzgVW+4IiPN7TJ72uZfmxJR5r5ZOHmCFS9pceIxBwZ0FzzIut93imOCoscl2Bo7wxh8/MkNOCgCfxNTsBm8OHqGdkJdQzkBLWW3UJDn8N93gG8tH0AUPAX0YIxDK7eqwyNlmSjSiwf13JFxjCroDpfOtuEm6lyrlKmncGC8TxjG7hw9k08CoElik1J8EI7XJSXLWEaAX/JSBEj/Bmro87ngRe6v2ATtG3uGeV+uXJTN43MMV2QcwC825GUo0OvWOSQx4XdEH0J1fvWoiwLXgSdLzSrb/qk+qwCWpbaPul7rkAKYpIdZa8Ke6qEQy2aJqI0+tFN2CReZSF68MuxWFOXqdEV+3BC7iT4ZHipd8jSl68JN5vNnXSJN0f69Nv+LIdalGsLj6HH6F8UPDOoMZr7h3tIwnYgGCHlB/Zd8bEMxfX+tqvdf3jaBuoMJgd2SLhchTlY4dLLJBjlyUDfn/l4Zo9upTo06SflWaAC7mepgbWig6p4aTmZdEBzTi8o7+jZ72ipvMsxr089G99JPnE6uDzcaHRO3zSBtlDAiENP6RFt1jqutL49jSXYs2ETdpS76wsTdCKckFbqiS7YA7n0PXNZ8lB3csV6Sxh3pfZhO+8g2iIsTZlIG5rOZCuAybt1gCdMmA9pONkN/xDeZTE1v3QKq089TvC8kTBdngcTW+R1nylEwKPa5QJpudj2Q9fbA+EurgeIYZJoUYP72TL097OSMwHHfkrlFvdl98iEHJZdYc3JRmxqQ+71vOYbsCV/ks8aiokWoZPz8mqq+E97Y8QMch52VBMVSy9BjGEsW608ZJt5V79AHxdX7Nbue4RV4mV7s9j8q3mhYYiPo3RdwELCtP4IBQyZjbxzximrnKV5KFd4Sa+1eupm1xrVAyLOYqHXwlHZWSA9uhDaDuFm3eUjIv/ZXfZ6PWc3+kSbodVOCxZ6isKZNAkfAJwBR/V3R8UiXTgnxN/g5LDAuhBXAvbU9SNMIz1CYnYzw6gwg8LCQDjUtOIxwP5XI/RMviXzXWmVRFZnXhg9VQzD2Ocs3zULCS6IuaagxvcOpvT6sEYyh1WkTEJ5zs48fucfj2WIC/WCgjZoJoVYWazGqB2p+0k//T4do9yNlkwvzzF394DU/Z5m2iD/lzCgzDr/AGmXy/46tTCYM4XxIlhIfyZkljTZCkkbv7I6CYJRULTqWZaOTHD6Wd25a9sekI2jJJ1i4wGDFOubR26V+V/x04NZIK3Phd+pii/osi+GJrUbJMPz0z2UX4WkweGikJrD1UsDLrO9w+eGyH3qUxOg8+iby9OVYjlzP50mPFv/vXAW+JulCWmwyoOb9qLJQ0ROSztXysEnR+n9AOmmDpkIDBw216S8WrXKmXZ9np53dYzYT93A7T1AfbO7gDuWFNbY96FtAPQGcZfXh8qo+eT4JYTrHfBNdz2Px4ezsnFCQqugZOASH+C7R88MqVrLy9giz/82jr4VeUS32BNzKOnpUMCI+9XEtxr6TwR7BewkTFduVKhNrW90gq8I/h71B7P6VdviN+hjNIB6ON3loX7gxijnBkpo44NX3K8uKGE0a6wVgwT0ltZC2avNWHTGKHmnr1pvFtDLB0IZkHb9/IhHtqY8PeZKVWC1U7l4XZ/j8TrVF+62O6ELMrnIZAYbskq6NTQ8cqKOOUuiq59AwXAlXRFERiBEcPmcyWNLNcD8OgCRfjMraZmbunYOj9fViGaS2j8o2kqNnGVwU55lxfK3Ayi8lm7qgrURIGandNtUaQzUJ6If5AFz8lcN2n57+9aKrNYfy4L59gAQeFpDXakkMDM0tjhi1y4M8eDI6EA6Vr/Z8CMPNg9dUjT/m8iZ4mU8FNcOu0PkfNgeGXzLHlX8kLtctGZ6rXWmAErCPwy3DojSu+O95FBvlYVPJ5gfkv/mihBdErrYfozkUoi8OJOc/KewppXrvOkVziRW0XmfE6VcGnjluTn2UZa7A3vxMrYwuZDXLAhtAwstondYiB31tN3q/oXhOpqURHqNk8GVvd8XAUp7oVZAmTaDlFfIQ/4U61JDLUxMWhhQZ97+2yF8hDlLlZMwz1CfX3C6z73FiqdrVSKGk2HeG/8TJcTC3Vsnl776xosaHiVvuVeiMryU3n1EWkbiGGM38JzUfivAnAsD9dUtP/3y4sXF2cydC2zvWxh+0pAfVHhFK/OGZRvCQz6O1GDq7CwyPBXetzkGaggK5Tm27SiIbR070dr1mJQwukt37SArrXjOYagtvj0anPVlMWDo9B4as+Cj7VT4Ssvnn4O8Ma3WHU/RhuYTseNU8ZNc092iSshXFYtqPWeQBoGgM/KjtABSLK/9SobpW4L5oeuHYIs0ZyKDwOFno0qbtqbpqR5FtfMw+mqt8K0u6ihmOgJ/AmFbWRnhgA2KoFBVMKGjP3cr/Q+AUrGvBHN2r4U/WAEkIbWWV5WerkN3UR8f3tSlplnLRFcZJ1yH95XrUR24vsOaNI6pcPsHU162TQI1ZDpHZv4tC/MJwDIMKtomjaX+PMYw296zlNAYu/+zaKOoEio5CWufQy8b9e4JRTEpQYthEf49VGSmtK9nGPnejCNFYb7P+LfF6+O3RTJ3azJVP5/uRni/O49X1hyK5TzOQkYVxwu6qYi9GDZSD3fq+n2unbV2zAzbIHj2EMhho7DHsng5VEYjGSipsDkzF8FOsTZk/UcoSZl6bw2v2r41CfY+6lcCyKnPzhWgkRyZzqBPrDE9gkkIYAuKQ0CjilnvpDH9NhbuqlnGFBIGenZZ6VCK4BWmvpJMC7kP1AOegU0pwrxxxOfeaIt5KU9jMT/f4h5L2YfD5gFjdBNr94NzpUjSxI/+84n1NM55dqhi/TJeURLbZ6ez/YVgUoTm0qmMRSnCN5bgSmj0A3Vi5hGgs2kBzfy8W9x5cQ33uEZwBeDwDzmUCTIhSJ6WjywqCMT4nUHKeWn9lbz8YDB5TLBlbC1X3G86Gijh4rN0qCOo8qVUrJh8UceX1zq0rblALl5v984e7TR2OPizFSuTQUeiyuCNQNVbNy3MiDSoWZ650paiSTREKy6N+K7rXdgLeZlYtMEIRWJk1/hokGz2SGtcW5Gs/hWAk2inZxBRz2KJh4B7rphg7wuojmGYtDeLu5AJbmUwkyaKhXyXQ+b8fCGtnhiWH9ylp1OxSFjpkpKBqFEG2xFKZcJkk9dY14e5784rIz/+0/saJIOZ5XLDuFJDtySoKAVlIvGHwGP8fAhrYa08Ud1Pm99jvGuEyiiyqGbE7f07mPcGHifLw4SMPcZebkgCPv/NGdy6XhfQXoyRlC6WfJK2YRSqq+k5Evp1ftNO8TTtfHRNhiL0+DYq2h1m3UR6YLTSo2OsOCp5XOBBlOfx3HTTJJfJqzIP48SL0r5hIwc8S/vjkgmcO5cx/wRyyHYtAOeOtc5UC3gR4BnVX0KaXqZsPkB/8ZPoYOvfvjrEnuFqgnnjvYl+LMfUaDY/rv++o1UdIpIB5BJy24UAlITsbCP83uGvCUUyXnfqZq4VuCBOLcySXLOcjfARgScFPaprz34STYbwVsaPrpIW3AjUN34GKXJLmCI++Tz4T8FoI73TvATUk6l3nLhAAh+HjPCEXZHNNDb6CGJrGUjuyKP6fiBUwtggijHfRHkom0lZj9AYDdbzSPQkXfeycircJI5DxLH+FISsYU6jk4PXBwbhatQjIUfBzPt89syeqvquTky01yKURKfFrWGPOsNclzoqHkYA+mmWAUvTDDlmQI6L8KWP5gFo/AwAkYroTH6kMQ0spJ/l4ZLIxetK7vIRDC9bPMP6cxaudaRmg0K1VFwyqWKc6SWlwExOqzJ2c2Fyx7S6uajCI4eVoN8U8XXpSG1LP5Yba8c0RMeQtrsIi+dKtAvlSE4HxtpcO/6odB57aj243BrqkgI+9FmdOqqNWSqfysZ6/ltHwVanjL+1H1vB+NIx5i/hC8yGdr4+Fvp+d0bQJVadOJr6LArj4XwW/tY09Cj5AOkdhaBpYfFiQEHC9vNEJ+SlXwNbOWWOgdYdxjxRpIkEkikd8QKKRG177/V0JdiTxjssWSTGEE1kjQXckS/O/32HT2EPhP2HZsmtVyiqrHKDvQ0zKW8tbBtiBNM3nQQ+UKtaV4eCXK5GqCrgyN9gcC52NmWssCfcgB7bYjHBzsQiuFiyH4OUDE/mUfacT63+GdSywb3fTc7n6dqEYD89z84Ve/hZbzMJI2AmoIrvteNejXvMfscWtQ1ZQSx8OolbmCaQbAVhTqu3CDd8cAhjsJ2DNXuwrPe3UMKCc00AqmOg55mtn5+7eTjT8PN/QM2w1+k/YDxdLBM5c3HZa3Lb4Xz/MOepPngQBjhl5df0R9ah4IP1lDFovEIDYWfsFvW9gaFOTthd74Iog6HlH5Slqx/nuvZ/I8etLF5L8ZL1qAA5JJqwcbQYZfGrg+n5nTB4NsDun/74MBZqRxSlS033aCMWHNqwzGDNrab8FP2gXcpRGIB9eYQ+4CiYdcQOYxoWk2Gy9adLTXT8eb0ZSv3JWVvgX07ER88KTe6+4wd60BYJI6ccE+zmIJvcS4FWLirdE5CVvHRNioOVW9qakG7LLlobSg+etNpXpNQYNB5XWVtknYX1ItOtd3+IQ/PGqCp6xsezw1T0gH3xOkTtgdMRA+HiKKJ5xwiaWwpPStfBSCBgJyhYuIY2X19tgZFU5ZvgfPnYyxfpFx9tB9riDHfuymJHZ8gzltPco36+i1s/gy3Kqn+gokgOCrYJXYzAaqqFEaRqA76j4J6HYBcJzkypiuXXvKy3zivs2rQ+gE1TPlZ8IIbeyN1i7lph/+ivx6dx9nbz6GIsjz/JG39vRamKDwROyogIfJcAxdpoESIVFty9t8hYVNnXqcQKsDfPSHzNVrfgR8eayIj7GgpYDe3a93Yu1+rxCvMToQZ1+aS+wuj6mnr/tFD2oHn8JnTH7ZJrzaTGKQZUZlFj7MPs9q278rz7X6GC0L8q8qJ7hODyCgOMCjMVXlhVQe+n1A8qaYvp9C3NwINmLmpc2WtdszvO8yUfcjfqglCC02KONiLQoZ2XWqOQL9zDaCtdze7z/Q6qpdRZrCXhYD08YwMOOgdXj1AuwxSviOcvv1wVe8jHDSJEdGDh4avAbjyEy6rngfCHbZtlJiIwq/HA5iduMaFup9TE2z8+Ni2xgPr9rnSg/NPcqEv+nsvZlXjQ56XHG9rAukJLbtx2Ske22imQe3ukF8e07CaaXqr5SuKRFCfHr932+64IxF26aSnF1jzAKrvJCRtmDZ20vZisPs6sVWUeVsDT1WXb3rM8q1P1yxiw46CbBcsvUFfJsJ0kIAsIzw8fFk/EZqYJnn4xfegBxe5FqeuJJX/DV31FLECRHQ8Mhpg482f4UbvDVqdj8/Y5bOoE3qdLyg6Hzffg8c7Cot23vSspbjlkQ5/tTSGv42Bb0PF3oqW4MhpJGheWgYgqjEJE0WINLYqrTMNtZiBw/hQVcH9oTkLrzimceU/xJALEFoXF/NECBdhvXuE719QOh8S0ydF3awjMROxVsATDmnU5f9XYdmjtDlC7locPo6avf1vdXQqExx7+WcvZa7NzoSGLTRueDsccO+1+iLvBfj8dxkH+pBMPGNP/xifcdxMK+RjBW7+QZE1r2eEwoZQQsXga4SIp0CNMH+NUg0vUB32095FA8RokIvOr2g6ikrWi880Ne8geCQnvTeptppsNDu89K3/dhOZgdlpwCWsWLcyHrSOaDPpLTEF21+moq9snTOqkbkdx550aXvUAu8Pm4A97DzmL+SE7D7eOpH+pytmbH8tKIjFuuWvYze5aAEUVgvbaIsiilKrbY8kGwiuQ6F723QMkzI5QMIxxkXGp603h2ZM0EqZNHqiIX2venuEYHHpW2d14B7e/g30jL3iLRnVGkpgP7/bqMntWL/xdUXMTGNbFzBN7zLHjEkWytFm4R4TL279gnxkEIyLZSbzjWSCaCu0crH9+kuymet7qJ3Zh0Jqmp5CBVQDLIQpAb6Q5f99LJIulDOism9rSPFTEzUuVoiRygi9auAF0FIWVNgw4ECLpQh0YgFaY8zmntLKvmCZm9GNdwk1Q5x0LMo1AU77EzKuvg2xdUKDzgksA15R/XYq/FwRU8oKSJNESM+x23JBSDLlflVbPi49fD6fNnGvjwEECbpa++rWuyJ1s1Eag4S3XCTmDF8cPlUEMPJAuhLhBvRCoDCGIzw20lCCFJx1cvjvUsjYdJP3WMPG6gH4Uz0viNrtfkvZ0IA+UEUs3Iy/1rN1g1kgQB4l5YMOvdES86hIIpq1H5x0jbX5tP8SMa+bh8tDtUwlfdf6PDzJO8JADYnpwzHnivBfzbnf48+DslE59Qg0xoTapKAK9skJgtob+/OQGYvB+yAwgXfxxmC/sC9dGL9VLQZYfWoOndxo/ENALkWdSrpavwvcj09182AtcaLdnBr7HTmbogf424zVS4gT9DyKSYv4n8y4YLgeUc98ozjDE0Z44fmpzlCAkLIaKNDYsGpEfUhfsxPPJhywaGspvjiJn5nqX6RrWhv6z/QhVHxmvzERa3A9A3xWf+vgjUsyKYQ604Ef7MirmPff8tCxfI8Js5VlIeZBFx8BXnuEPuUoq5Iiu2bB8YSHqxdXvJf9LC2pnsDdGjIyB9hkyMRqmRTyEOOTKm7Ah3wMXDB3P2E664J3lWWe7UGc8CbBsP5u35qvAy4Nuceh0vsf7/rauiKQE0/wdERr9Rob6PQNOti+xK36wD//ZiuFVodzFrb87ayFTHlDA+AOIIAMDfdpZdfXTK5vhzJvXxDzemTpeHteFlXfyXmD991lQvyYKT3tp91tTPWR4SlFKrlihxJT1DxpJfk6I8ZvK/0ed/16fvTysEaoo4yMaYNYfuBcazjWIN9wXUxOaI7+85wovhN3d/Qb32L+T5Opi38JEXjnlOhuu6/7uG2v6qYtMNQEO3NeythQhE2mglAK2B4UulaV3XTiMVjsb3rj+cVRz9xKuYOk6bOv19iRORRL3XPEpNcoR7eR2Dyzqb9QzYtGOVD72XIMlPyUn6Nun6sNna7zF3ZQoqva0lVw/Cbml/RDp94mjjYncZWH+2pO/E9K2eFjB0CUe1QxKGARU89qDPJM3k+VdDslekaOEu7ZDcahNzA2gA1wRpEyDLgdeNK2TCtkHzShKmGbWxQ1JQj+upoqlvOCre/YeMM27SpvyQfa92z85cB5qRPtkgicmAOaYsu76eFBLy0JPYmoNoryOibrZslUww8YblLMJxY0mN+Ir5UsvLmKe1iyfYOnhd1n6ywNdnT4X7Bzma0SYNQDGFMp9plodXj0wbgYCtpe1YI1njB/PdOmx4zHdrMaKZS6zG7eNh60FcLuLFQ98IuLDFACW3DkgqxmMYE9jI3mDBBRgfdFKBgo56Yeh8o+4Clh3XOpWIQ/ITp/r7ezT0d5rKtOAlDtcdw6VemSH2Je1wLiOkqDd0104uEvGBZeq6tcTCw/9PfcfbA0u+qBkAerwlJnuVCyrADPsA3I1g9OsTyZNBIE5quw+94voQtvgKp6W80ZZClZLaXzfBlcQdI/2BwYdNj1wymrvEBvTo4Xjou5XopiEoB50jLgUep/sN126yVGuTu9OiDf4HaUf3rImqyKy5YoTwoC23BF4VI1u+szLijEwA2nMRmzm4hPPTfz4j6BLkJ1YgPWNP+mBwehgvJA8s7Tc2f8ujBNiIBp2OiorojqG/sQIlghq366VUFmX4Zmh2YxBawodA6PJdC73GaZxHvIdXdSIH9RbZiZVJ8RF2rRuMTgQvPbP6W8C68XP+UJ3ADTm0G6J4WY8uKu2/bXO+WZG0/aBgQTdTqoZH9ZPwU1kcx2/CIBwNKkNxnp+CCUsfECEWVoDuRpwCEko4Hs9PoiAkhjTNcflWjqnSCigXNzh6dvayLEmHZSKUyayObWw7EfrlMXFruukffL/c/YpP6G89v/viaLNeI6GkUJO+GSeItgwxXI3NXNoHxOjJSabGOviHHrUYlhRoBHBY5+cKXmA9RnBWAtkG09KVUzR08DZ12iiivJpjCwcIAfiPxeqPS/CxRi23a5JLkU6w+6kZppJRG1DXRm93gEcdFIUXGTOdH07qwbukrc8WYtzXt+DtI0kBEajkuzvjq8afmz3LZLwhAd4PaVSM8DZov1b+WPQIFwUw9jhzLNmHF9O3Jth3Kv5vzoXnrHPROkxWMDq3uFMTKYEaRqT06mVITjF37WWeyEElS+5XJ/K3DWSSHdvJLQ3vv+ooh8uPbDNfrMjMu5vXIgYvpziENwIC+eSCKcAZ9gyFhJpMGtAVdciYXwcOimZh2iZkMtSs+0NCeh2AJk6fSBmaAIXJqOHmTuAXFqrLV993fdrhIKhjEHjnNQTOo7btGAmaFDoYGUVz4tzonJvztVEZ7Mcx1K18NJcTMk3DSVpzPa1VoqoB0xcamyBSqv/tzkSBHHAPhXfAp0kEHfOdm/f9m8zNkVRUdHgmLocZVdRcrOaJ3ngOrdu9UHAa/ZDRbdoN081hdkEwYXLXAK6wa0iXSdqZWwGV8wg/0x05bxQPagspzOY5U70hZJVn4lXZAbEIHUo9jg0Fxu4IduI/075Ns57LvaAi1UuxqfHSY5QOowxAPu+Rs1/n1XhVFOuReHw89H9FMn9d8HPheenYjLl9PTpbiHy0acN5JHmSZ9AitGaBZ1RfsXGSb7OvRJsTRyzwXT/f28xlXkdAdG6VDoCDxIMuheoOU8TzhwATMGmK/017HF7TerbMn1oYt5j6XIcmFMrsjhbx+NQ9X0GUGT2+Gu8rBnOSKGT5wccZtL5j0GY7thyYFKP5MLbZ+X0h/bOeWHIouQxG6lX72cFwqJJsaKsW7mBJlNuEGoeYq5ydDGeKg7AvtIlEy0kT8a1Nomz5S44TC5d3ooK9NNzgW/ocTjDDcMsvrd2R7P4FsnbwEFU6nI8kCCDstZxnD9wLqaV08SIb+iP3y37K+WLNN7Z8FdbJBr9iUJDFOk6Xz137pFW96BJ6cq+mQc87PP8nNDklCbrXEZiUGOOBo4hkkGq0V26WHaWR+5OsQuVCa7iNAuIZYh3OMu0PiXy+HH0oCe87JoevAwAtGkiZ0cu5+H82LQpn8WsaF5XqpIgQUMUrIrBavCJEX8pJ/HCFkUrTj8QnBbRGqAjYTo67I9O8BrvlMMqr5wnnYlLCyTEzXmov1RBFwzxcTACj5l+fQLK5UnpTvPWfCwG8//D2QEaaVdHlZ5FWCVp9flCiu+JfY+L6TuTUolSgaQ70xFuCd2fGTNvDPpUA7vGHZrP0IDomCu+791iUKw+PQFE+15+hYgZ4NXRzsNcA6CiiGbhHweBf91kHUgT25FQ2z1W3vSjRVP4bpxoxrzYQ8Xnyn2YAIGjp6P+2Pl+loRE4jP3aGZlqerO8vjjTou8Q3HpvaM2xGkkjFBU8GP3hRCiMQwX/GDHOC0lG9uU+h5dSf6+J/U1mKfPfH2oc3y7sUxNWY1D5dnmOh09F9Gpts08FP3PS/6IVOtTd6UZmX/w7wVaj478Kob/xknMPXap+BHrBW8hCiHJFW9YIh4ao2IE8/s89jsQ+G4O3WflOOuk/uewXH5tUAXVuHAlMQiqFKxaZ35yS9+B0cPN5UjqPFYI3eYEE9KXhZ+VxEKOrgwpP+E+jvw24v25156yaWkC5fRrySO9xjddocaLjm0NhYywGooUAHac7p6YDAxkhwFprkJRHkC9oPki9MIZz9oW7j0ulRwDbQmAIebWLwfO9I3AN5mvnQVEyFZGzCNKeS9GxCTqqx7+J6LrBnmrqa9WH+8axEWSf6dYo0ECGvVtlE2EtbH2Qm/VYSRP2jwFmVthS4gizsQDz0hftoonxidAU/YdOJ3TJzih6yeEoZ/CZUiriL5W8/v8Li4Ar6cQt6hDufITbDGoxHx9WdoxxnK0lhJi9bDDbW6jcyDkuSiYkpE/VPJp6FJPpIOapGeMhfDf09RYg5zGgDTJDB0cDcg8dBetg3smvLhwB1sOBLElFbZKpf3CAVhJHxTVGFU41CeDBjf8p/kmEjHGXbwo9o9/s0Rg+DSPngjJF7W+k9stfk+9qtWoaggqEfiWkJsNcYYadWreIdIhsM1PWQBMjpBD5CS6OlmAnmfBaZU9f67rK4dtSMf+ukNRejnOfd/XBDh+ejEYB97EP/1fCZCozTX0t0w+GhRil1/T4Cq1T90IcF+Rb2D5nImKE002yWMCmfa149yxoKZomPl/Gis864rUeyyuJ2rylsSGSbZ5MVoA6Wl7jeKjBz41DXItdLsoGSpUGktZp69O9vbEBYAkXFQINkzMQOicXxGu+XsJKUD0ybFz1ebW5aP9mOYtftBHqBKlv6CYoLC9e2yevP4JSf5Wxi+E6+3KrB5huil5nwfYueIJGpZRw5OQfKjcUXBpV9yt6eexT9sKqbYdmlNjE//5n+zgAKX8Mcsmhsj3xICeLhOGMaqNhd2IIQ3/+5pamEbDpso5QLkPEkr8WcjSyYueNUldPMMFTnM/xidUG8hbVQRLo85fQfpr8/hOMDEtksnEWNLigWEfFzN7zdrwN0zCeMtRqSdrmpmw6Gs/gpV13mPIhVZAkkGTfWlWLwoc5L8c62JEg36zK1of+I+hpfkUAnnNShOMhwskAQJCn0WndpPMcl6I+pbeXj6VnDGSki8hF033BEidWOS+pTf5QpCsepsI94H/NXDTPHJQwBiLR32PYiXgPIVEAg1FmsbsRAA3SDJCSKvI6Er1Dn8ZePhZ2b01NfIoJQLz0cRV+BBowo1ZKzAEOmDu1GmedLWvGNW63MZBTsoeefaeLdpA+zSnHFwhE+9UdgM5JrE14ighftjsYc4gPqfbB9oe8sCY1kF5+GfBUk3/M5x9tw4Wd6lfiNvPiZuzwjcXQVRKNYSQ2S6b59qmgwslgB5oo5sXlydbr5l7pOV+EW58zqGrb+FOwq2X6tkRf5lEUsHEnunDIOygV0vEPssNng6tktAVa2fQkoe9Fm5Ou3USPP0lFQ3DvGaGgQPkXpBLjnpLuOY7PmK2Uc6IogvecnKo1h+HEbcvX2kRBB79ZRQrRQSTxthXSmywtnA/m9b5zmGZn25nAnAcGn+Vgc17F+NcV0y/WOYd/AXqdG5duknuDAwKvnV2H+jQIlg+TE5eKc505tWPRO0PzYVqTLZK+8NjXV2PTQO5qT5IMsGobIhincQxnpWW4la0/EpALwEUS8t6RDM4+MJypUDD1o33S98+B22Xp8P3zaeKPpd5evmQsXnjZj+67xCuT4XFT7FHPl707fr6vYwFIoABA88GZsFEF6Yaj96WQ3GmYE1W7RF1on3cuHmTOgQq48VPW4D3Mx9VcBLo+L/znQuQw9NDhoIOvvMW9NVtj8agLPQF6/2gXAQS6O4cKna6Z4OSfuKSU7q4Bs0egCESL3kEoXL0UeeHPW066IaeHLy/a/ecKpH3e48GKLKAhaDa/2ONvTAx8TXcA4EQJyhfXA9VkdfNZArxwwu7Caf+TVpnI9YSTIK7z5ilj7/nqtVoQhFRtK4mdS228wvp7o4TE+9sIm5Y3KiAd4ot1a31r06lDE+bvIE+PsYlWNgNakDxxMwHyeNAorkbfDftLEK8dS+m3vefbSnapjawNqnt3rq3CScREJpkGLOdC27dAKb3dWjIF+KPpFZxbMVNw1TMXymwkgDJMB20BFI01F7ViRq2wgDQ3bk2eJ5B62ZOjOwy/EVHfS5AHpT+G1jp/y/vnwXJY5fjn+M8QLb1eB/fPNVThncmTmjoqAaj9OwGinzKGvfQkUj981VDDrkbZ1yUgr5Cm8+K1Ozma6DxMsdb5Pw8Nbnw4++3C382VKsIrKXWQ2vm8aJVs1LzKfj0QpmrSRsP+9HrGtvxYBkfsIiZCmgdtFTgPiahdPgNROMbVYpSiRWRKhyJ2+LFCIA6ZpnFA6hUc2yhNxWvWrCVbQRoLYmpppsArDS1LHMnnU4bPq1KHDqqA7D9shrpEfpNXUWN9isthpHSxswJ26sCPWmp8Pl0oTKZq6oz1C9prYhKMqpiRYTtmmyfoWt3XxyfX22IrWcuk9lZ7kKuv7ggd8cpo82zXhfG1H2u01ljW/O1A6v2Q1gpaMBIaW5bZd+DRE3n9qc6MzuJpFjRUjYCIeKVnIHQlJMVGX2dskWl9amjQjpE27nSI3zpR0RTdbLIrzSeC0uL1j9DuuUnjuJq/FOmT/GKH2we6OP92MTNKvqWv0lG7u+8d1ubOGC4fTfYB6JzXCUAtlt+THqtO4IcWZwDBrGrUSTjJoZFLpC1nPLt9UEM+gnnE4ng4RwUbb44n1pN7ivJi1T+MTf/SiAav6Q/c2qd3UOLI+JO427lAvK/dZMuXDM1Wj7gAskVKZWbl9KubXM4IwGfbHzMOQyUlLmPbarRey+7R9gDcb+t/kHmijlV1D7V/e9oci+C4yIx2sG0TEehgRj0P6b5tlJKhVY1i8jMGM73WQ0b1oopmNcb5gICPBbdLSC/tbspukUcVpiOtYXgeFoNuhz49xx+qzVtcV7HUGLDgkl9bYewycSgP1hRmrY/UK4fId/JZbouQqFYWe5bkO3niKdbv+BzO0STk9x8fsMbyp4nGsM+feWMrXbk5MidSkG7lQu6cekkObEz3nRazmrqKBau+Ip9GLj6lAUbOMB9Ol0g6QHwf+M69VWZLbauCAysJM9HtcT3jlLcm7+9Ym+mqTGGejwI+0QNIpldGiHgpUEaHtUpmj7y87b4dAx+K+oh6Zy5R7HHai5mXA5r7KhESr+p4NuscxexnMNZFxroMceJgX51mxW8Bx+oNty04XbXUt4wbM8FPiC/zpsC9q6ryPtYEfux9uRqgtcmISGesyQ9bT8VXMV3+HouvAse+x7vKd4kPurq6H8KpAxAUzN24FFnjtIuTjSIiiTtGMU4vYQ0K+/Bl04OFxgY9f1WONb0zOjyN7s+LvZKveBgctjiNffliwjUxVQ7k4RmLS7tpyRBCSJi2mbEfxysJnAJOCsvJltL+UgNkexY3R6PoSKFvi8Up9FEH4E7l44nVoJSnQJ5qf9ylJu3sVgrO4JwPvd6EMyB/74l4kWVM8MTXDPV0+oyEGiQfVveP+KREvJylyEdz7S5oNw8PAaX95Rz874YdRkLCE9mpmBNmkHl8/iYmnTuGL8IFzPalnmUzr+E6GurTK1YpNPllOjXgG5l+GC1zFoqd10hqf4AYAoQHJDo7MJkvCyRVtUsIOTgmD2kYoCd2dKr8km7X6UJjvL9f/TrJsN2X77DBNwYLTRFaLmxzZGVt1nf9QIGH9CLUYbdOOa4cM0F8ykGciHGqILIwcVRJfVjxDOSjLF84WPYd1avSajwJ7vGJsma6DtqVXSh9xLssG1osQ6s1+/27Ho6n1wBiMO/fHW5BHKnG4vugA5epg8PTQnz+GVIOuCNCR7i0O8GFVJhHOfBAeDnsW6ZsAcS8AkMgYf4iEkb0God9NUhj6oT0+OzP0vmfysERHdcYEEhHiHE+SWsmoCsqZ8rsd0TmWRLyQcUtSDfq6e61soCZ6jqsliEwjbnza0kigtnHqU5a7eXOGM3YH2h41x40cx4hV9SUZBud9fNEQfhP09Ve2bO6bF5tt6VPhnY8ptcagMW/DzBmZ3Rl1SpHm0jaf30B6UABld4OYWXFOr8CbUVkF/cN617pfc+3ALfTy/ft3hsVQV0Fc0+pgzxKfJR9J44P9HWFazvaQRyiq9Lbj1GU6wH0B+ScETVolOaJegNdjmQLyDapQEZ/VykzP+GJYRQ2pgw6k2y/LvuAtn/L2sn38meIo9sA+SiOFykrNlO8Xd3vrLJ72E6g4wo1t4cvv9SA/CI7/CA29L/vS1PFPne47LGxc4YUN5bDXACdPtMdR/qhS3AMWuyQut3lDliCkkcijPjiRLeyTK2wGz6BrCaxMYTrb5N5ExNWdX5F8xxf7YxsaPBulMTdGR1yw4qLmtQ+/d+k2pIaMTtNhyBvjPoLTwh8t7EHyjLgvoiGF+WwBorQTKCcXigfg+fKJl5ZyhmLnh0u8l0T1WIAxTrQtv0hakoyfLaEVHKW6YwLtVGN5ussFPpHq3KTWjxfHGY1RJi4zANNH5X5rCfLfyVe054SbGCi+DFaZOLo4w8w0vnsUqflHjIzjiyvx8IViF4GkgpMEVYxVJmLZnsbi81Vcokjc9/+1rwF1i+ZtUVLUVG4xJlFRRd/u+kdKgHmrdFLys3D8AqCCsqa+kAvur28fiiLaQ1JuVWRu2D99clAbHi+rIqD48KGxWxwwskXqyvxIk+QWbqfOD2viArt3xWEH2OupmTURObb0ATsxZl06mKhOTynb4blbNbVoF9Dewc3Q68tkvAf4fBLdRsP5jkW3MGj78q/76qNfS7qUlb+/wxiz4a4fadqxioZSZKwew1HJZr/TT7EcBfvPm/f4urcVir+4fw3pm/YoHcBBevTkugH+DLUGTkwPDVJmiT6LBQabUFe283MiwfyMZ5gIisO5YBp5CcYSAlxSdZBbjluCfOso8Ry1AzbkKi6BNHc1zxbcMOLWv2ea1fCo0SvHvGXNBUsvk+38yXC1bmEXCjHBfX+IMAMV+glIBq7ydC21kVbfwYfXRThBlgTgX1rJgef9Iw+AdIFEuyFuyTnJv3Yo1SzeJ+Ky4B+hXnTRCLpID+bqnD8+H0MeVqFG9s9i0mM/D3PqcKMihJyTSKXgOuIxzQ3ZxFPF2KlNdC2I5rtGGWsPsBtLqydn0Orme/Rwqdl2x8onQ5SB1Q43qm6kNo2hCrlFqatFd8rQjJj8Xs8JuBh1+2julMdNd1jrFxjTLr0Df6NA8f/TFNXXkDQBEoDJ9d6hyphLjDbzmjnj8QoDsRYlQ0n82ONzhaTXcyoX7pGO8J5I9q6s2eVsZgymCxGRPSzm5uEC4scS+M+EHkp8C3LwR0Hrci8F8lLFRwrRlRVNy4yfBXIez/xlzmwwHsp5Z6GEQ0B4tr7CZrerd3mSQMFDCnB7nQhW/xJ5eWgpNi/ASrWN+FVTh3vHNaIp1K+hdvH7BDPd81oXQ1Bivhz3dsMWpm2ZQ6GhMHoFLBXe0x4f4dbhGHXNNUkTLFLnAgxbg/vYEf7pDZPxRWCzQauaRkZs7xnpMjI8h41LuUkJO0oIqIN38+omEORZkWV+Y7QYtqDumU5hPYP5WEEcRomZg056gUSolTlYKqEAZAoRFvkAvM0xte09bBY/MwMeUHXrXGJWjvhcKFAyNO+vqBO3H92Vl8fOxoGte8QHUK3DTzRniJG1SrYFRFa2TXxorbRXMwIp/e9dcEatYmHHaLZUAbasj3NlkSdUbzlc9Xsz0/7cLEbPZld1uj5IZuP/fPehBst/wnAofCaILhakQ2PJO1isJPDV/mu4FDlBZGPlZkZJ6e8FmcpvfO/1/Mg5vk9pomofKtR+eSSs4AEbtYKb/y49etCKxabSSWfpLFBjLABtSyCKvcRT/nBMVdimD5Sum2wzKCokDCSnEh7OC4+eU7FraFcm2ZrZkLwtDwY3i+NQm8saJxLKBu1kDpy55ucMKVOwRG9s6cr++EhhmHi5ADIXfWIxT+SqQkcq/PM2F4I7sQjGm49x5KfMpdIWK1y6orgRnxUiibzwUE5SfPhp1xQSqpuDblq8/ERaAMVJe1kn4XfkvLbzEtPWEKRRigTztN2GQrryixGZzrVNxDuk3CZWM+IGlH9kSan2XXIqiTBFdL4ZilecdjV9d0T/tZvvwg8MpdhwGgbbBmD7VPMgk/mx1j/W/xgRsNOM8bKKqi5MD5MJvp8EVMgeVULm29fR/muIKEoCkiAUlHhjWuECeY3utt8LeP27mort++8wCfb8JsC/sebA1/jby7AgMTRsDU6rAqhbJ4qnxnfKH1OScanoVYTzXMR2AUAXtX+42V+swA7EauNiFmWQ2JfC0inU4ryyqswGAijP0TXeX7ZYTTeU/8KjzTKOoQVjqEy0nd361t15qOAEm2ptABKuq//9EAKE1eeiJypuJBZQ5C8b/dVhpYJ5WMnl3tkpPTU8urWl7mJOXPN15ThfiuFSbrBc+3BzEriEvOi8976twReC9DSFDho97Di8BrrNyF3BzVgprPbpQ4vMx3/dwWpAlYK6/2DMzbRQ8ZMcf3sNj2e4m0bx39ZgeXDfP7txA9H56a04e/+4WmcWh/iKvD0XDa+hxxV0sqWXMn7PfsmkehSyOywgiy0pJR/TiILcsxax5AdLIdo7OIloaAiF3GRXnrwh8VQZkzfF/pxbPjwgKQNtKj6l+Fzv81RSItVnYEqe0C3zkjIjPi9Z7gDAyBpPN1xtpShYLUghp4GAcYDaLJ6XYkVl0ho2hQEwXolikwnq5UA7P2C+QX0g/cczBsCYnd/0DuJTt9tqEa0dRo/4t3VS+wSzoYwbt8W/1CoTwkYae9Jm/SNtYJH0XA1LR0He2/wlH8IWiKzJ977TqufSRE789nNNUYKkAju9Rqf60pP6V6PgPjjIdg0kxU5lFxEIS0mrbhseJH4upPCWCcg1lQDj2kb0s1tJMotRnWjrkFwl+6KuZh8gdFqXrq7sbIFnr1fJryPzU3fges7znLaXjAGVZ7Gd15ugoghfztCGe01H2ITGxU98t2MHPW935SVdH5FzyOpjidPyE3vGQcANaxc7P5Va7XGPl/NqnJEjhk/Lr/DApq0U+cQhRxzH3kD6KOD3EK1c8QJyJAjDm+SC8tr7kJYT0FD4mlkkYGD/Jx8ho5dQ6NcFIqOuGR2Wkf+/Ry+iC/Py0/VkoqOmXbZd0HaWB8DQ9wEC3F8gwpuEA8Pcza6I+aOa9N9uK5fO2IxO382svm97jblfzFdZ4y8Rar8NFpp6z0JPf/yfJagtSDzd90Iv47R/j35zJctY2XpEI4sAdl4Sz2NufqoyXW1STSsZsZ4ovr9twwdJilGntWIZggMColA5vSTxQaoip31ooiKa4St6PTiXzh7iXtVr2T2txtzDU8Y4XJ2zarx8u3DxmYFF74caols0DtJfWL2Aepe0FpzNpZfgZkg4x5mqAPS0eAsWtu5LGg43ikveRCHrc2GTmH6ku05ixOvuomaBzCE5GK/WPXIYSSNOWEj9BO4IjCLVIE2JYBlkPl7W3BjP9Rlu/Ybj53n63A/F5ubntMrCLDpK/9QNdFYM21E2XjBoYBV3Prm1ZIozeBC0yEeC+OSzYZL7ZWBZEhrbYzcgJTZFrGQUoux5SCXXcAQgIQof2llVmc7UfiGL7zfP5Ac6dmaIy0C5i6qES2osSBPESid/J4Fu6iTnOppYzhXL7694ft5yWgIlCQJCztcCDI11sgB2tklG/w/2QmGKKksd8ZD/JzAhFfXj0JSrYgFzK0b7sN3pD9GtsHm5K9kqFg/WtbkdgeQuipyWP//jmP/4CBRvy/S18raVMiX8i/9L8bIEOQBK2qpZ0hDr+/i22z2Ux3afKc0HbDXzc3J92MtlFNiiAfv9B1Y/VLDbO+izzWiUxCv9HXJfUAQ3iohLJuHmNkCYVJChDfpYCfipY8MTgK51IZUpnzo0YXV95KwY0qIXJQpUfsic7OhY7PY8saPz3UgPAyxn7hTKBy87ycpZt4WSlPiepTg6UQz+pQcMzU0Rafq0evXMIBVY8J7RdVvwIIKo+jEk0v7FgUce8UYR1ZC6iE7BKCzQfWkhWc4F4ZCUDr+sbkTfRhybO1SAZvY8a0hN5A6AD8YXBmLqTfSIx1LDiTupOjIBQKSSu6l0QI1KKv1X9PndQwRMsYeCuNOa+izg11hyMXK9VqTBFJVKoLbBcQyjz5Gf68l0geMFfbBx6BnOtpNeYMH6uWm0hprb6qeUg3j0t5sYkEvyUMnn8a0vgZHZFqedfsxdxtyt+dUvm6s+IhVPMrT1ftXYh4wMntq3ttowWjx+RAifFS5pDbBo2nOFB1l0QhW8gnW93czHzUOUjgf4G/AJA8fxivfC3Ni6d7XKQMGaO3TeROu6GzmjDd22aq9RBtpMBrIK07E0Yc6EYCa7SwC/riaoO9FafoP6+UUcP+TQ6UgHZJss42f1OEJZGfijFyfurCbd4/ECKWAu4QMuxFEAH/GeqooblRu8ZLOljU5RFPPUYHWqu+aJNclDl9xlKnC3zKRmgVZYI7n+Rm1/1SFHQ/LBtafI5bLChjlTN0x5Pad5yyD51gyxy2H6yXekmfBjV3J3j560PYulJymVVVnhOv+Bsu2Z2McrHiZ3FkQsnPrxG3u+UXuCpRg84p8KhHys5CyCQazLFsomboLIVfAHVQmvucq2uY2uWhMUlKYBPNliiYB1UgJVlBYgwdOPr/GTxN+i28O2pCF/usdOoMIE4IGmktjtgCMcO4x1Y+81o5jYMnp5THZqH48uTm3pCkzWi+Z7NuBSDyEoHnc5X6KAFi0/VDSrQdopxJRksQx4RNO1lbX14zOSgeaGfrLEsbqhdB5g0BfxuFU0dqZqp9CHhF9gAxr4hA83Eyby2pSjYDqn8GQOw+TWJhSqdN+74EGbs6bKPpxIfi0FDQ6tp2cc96omWcEJBAYMCvdlV4uw+ZqMNWbqqK6w5mvuD7Xgf6e5nQtigW/fR0H9xwy/3sginghQ6glA/vugvsMSvGT/MtaCUu1ZCIAIBpzuyMyKJrjyEZ4kQYO0pl/pDx9jBEfuakedPP0yQkaq5CWEMWNF34Zg/rKrUkVGHrRx96Qp+nQtx8if8I0cOXNHwH6kW4CBvQ+nCNb8CX7I533AfNqC0Swi+EikT2+F4/10rrXqlNs5AWz1h59PTAjcmUDk1Qr2Et0ApqTlxdejdMZVpDUvi6YHpl1pcPVzpps8BS1AHrVhYAyoXetDpxFiL1QJ6p254CJ10n/chVA1Ut2cV9jYMwRlwBlIj4NfSpmX+WE0z7aOyAiTUITyYquI7Q6LezTWFpgFLIu05sNNExqQLKH63MYbb4Oh8G1Rje8cH6jmISWJg/AjojnAd7dMqFcX4GC93c/XRS0ULfjN1IIZmlFWtlnyL8tQ2gLhk+CZ57HyZtrmE3TFDq/LXkPcFrBzdECG9pgdihdiW6RLuPyCOWJvms9cMidZGc2KIScbyLhXdzzJNM1pIwrypX9s2zhLmRLuCJb3ixE8pwS54Yb0uI3cz1PC2LzvqrVDyp4/nieJDhl3NsO7fS0VM8keYRqyB9eFBa4AaLbft/+s41g9rL86eNz+tGLuLKQPgf2gn9kiV9LDFceqfRwzps/ysMq5zVEMdhC5VT5MXehtkiiQERl40cLACdZtblLyTG9C9kDkNFvvtvheDThcGiLwGgPizEL9Izkmt22UznwLEihO/u+VvVsv2iz9bzh6zNAO4tz7YEOrB1CNVkuOgCSahMtUy1HMroQV+zcFuk5yjmZIXptdas2fOugY5TqIs60UMPOyqDu/46Sogbg1cOPEIoZ+YnRhnNX4Zj/XMPSMO0KhkWkwirF1uCdAS87bZ1az2f8u3FNzv0a3Ngt/rC3CjFhqXSgblWEzm33vpxiBFZAbFY8qI/sYfh76h0ENzMRcgBxz38dcyvUD6Rs7gULrUGX5LhLaRU3mWCUZLkkPgBRVGz+t/O/Q8iaZ7t+j/mSTv8AKkQmd29lp1RbCWKR27WQ4yGw6lr5CV9eg0VOfW/UcUeqVTfwlKMjhSd0eP89YqouCDZdIWEGObQ/UOEL0cEn/HCCn6rmNc67I2IZVskocrmv4VzCQ5WMRf8QHXBo9lN84Tv95LHwAAR5qzIrnalj5lTMe6brvBmTHB9//2Eg9Es4NGnRMwAsmZr24IVUpasFpxpfVWiDyNOEIwkMLbqC9CD+AbIYNz4LGiTRtPIj717js3EcZPcifOp8fT3ag6st981XR0dnUKeL/1YbF2IoU5gS8CSRRdHbn+kZ03YRVv5e5THlr7EJCQR1C9CdvGBlUg4gXkLO14hplbB7HBQGX1HaxP0E1CHis2GcgmAZtKDODjtf6z4QeMLTWKeDYzr3cGEHJiMDQWR4UeysVV/TI1UzyVkXYXvq1xNX46OqrORUvNMO+1WiVIPY7+AR4QF0YMziVVNc1icBIWkRfMp5BDmKUbl3BmW5sr4W8vUImv3yjL5DlA8/jaa8GqMXeKn+OwiapMLcensyDhvUj899koz+83IGw2tGfrXe82Dtuh4/7MUWbA482pq8DLNeF6rtJzX4E4l9jHzdVQr+LbvdFPyxGB/EnS6pawkoS/PB0jiDybO3DZ0oneo55WYrT8/HSWDNh1ofVJrHPaIEDA7hLtoHe+l4vEd/42J1sJvIyTrRmnCmE534B4C8btFmQHqbNw5BI0vxGdfqN29PucC5lLYt5PTMifYev9F1jjqDsqf23EpOzz/oQ0ehMRMIsWTE40qM2XpdC9MK4pWEUMX84RGCEigSoSrF0qzrIApBrqUTyoDHVRvbgzTTp0oc3iBhgWfL1gA5YpanrlZVSj7qfsuco8S+nFlFbk69afjMK2L4HTqucywLzAYEM2b4s1TMfiYLKg18Y5JeyNRgDzuTAqi/gIBQA5XoVblH4XN5O9Prda7FrAE7Y7IPu+SKnp9fUCfchgwIJMPQtUyY3rc6A72TeZCiNCaONNdgx5qI9sf5NFoPKAfIFN2a76jhzkECGqYy0nrblstJQF+mB2OK1g+sJNBIAB88QnNSm9sR9c3Qc4AzOXSW1u/HR6du6zOYomgtSi7z/AT2WPv+QLzchVlCUV3Np8UIQH9a37DrjIdjQu+6SLdXQAPystkUAL3GS9ECiGYmPf5wc18AJuSwZD7v3G2NdPTu8I7XRMmnQUU0UgrezsYQtINjcJegiTHckrOcLL8VPsPt3mA0EVng+fHecVCFEAN/pQwYXBpzJeDMp5I1FCMSb9iQUM5ZciOZWKuaE/Ovtip668FbebgzUoV9nK9GzagzL5ydifoGSXnc2APkhgzAami/eKimCkRomiJB8zEQT5YaAldrw2nwbq6+nZPBqfaQym6DLX9ZnoAJc7pnfL0XRrFxXa75/XwCDCO/jNByTpnoYvsm+RdAfnBFfdlIN540TAXaqb9dU9srYcMdKoTQPn97RRKRWGj8xJ6V71oQU99XLrTpFTUyuL5CuWqjxhnnQSBUhJTL17Bc9xOqMkYhW2jlLzYCprbcsm1QKwJwFjhA6Jo/yfw8o8i4bRvBh5kVsSvYJxYoiGgNpoks8CxaD+ZCRZ70Rl4wP0qVNkYiLTJe5e+FD8YCayDKwddTeT2K9XJVsw5jGOHx/o6/CC1HalFI56sOaeokFBesXXSDOKjVcF5G7awoexrY5QsSwGgiktW1iZGndhe32jJL8LSytuCb2929oxvyBBjDwVwLME8ym1TiYgylSqIhScNYI1B97AsN5ZgvtqUnRuGYZnETO5dQlNiI9/fOuHk4bVo5iLFHzcDMxDcYO/1rRgcfVcAoaX80RZvs/9ENnjuYIUQFiDGJuBWnCzZWwDScojlinU8p+tRV76HZR4JdkBndPlfXv0lRnc30Oz56aJFX09uSBcwTzaDsaWiTnx9IjUNqDWWYCADYn4dRMBokuK3M8YfOs5tYfQTLOt58iWDWsNKYZGiAY0ezNn87jiC3CIbWrBrWOe3oTOqQOT1P8iu5S188I7kRTA2WSya0FJHmH50f9svFzb+vr+X20TAI/cgQekyH07LTTnaVe5dQHO8ck0/40RJm81x0zPlAOfO37vcgWp/ooupnyLTHeg0Ewr71eN+bnZDi1do/k4BlC5wfwu7CywpW0d03YRSeBcNTZ/NBd2il4Y7EC0X6wHIHgnaFng5u+O5u6Y9JkHko0H3MVKceiQGJDI5ngPRNLrqQPwjVUqCJIxIAHhs24ZrtSjzicNCA2A2RTpO6es9k5xsRkqkXmv97PTkF3FqG2B7Ez4kjl64PBfRGmFEQBSRgD2KBOLGlQBV9/8MfLSITlRn20lS/fG8Sd/7/azA+kPKwyMJFS/YoBYUj2/FhOaSIkIKTW5kQRn7XuMYJuMKKbD1xiKLzXGjfeiTEo+TrRP36vl6lKwKR7LCCqZPMMEpOomF5ZuOFe7qoLzT+KLXuktByVtjrhNHM0Vz0wK1hqEMuphVSZAVKSk1ef7LyoOx0RldFkP0gp1GsY06rYrr+QuVXF9ef+SyHiBstb7GqpgiO5ra/aclfdkgNuan2MQRgXKbZJiFqyhXzboa9x0z2AeiK2vipjODlG+SF6252rH1z+8WUtRhualzyvfuppSJeuwgt7ZBsnEsUFoT2ZAxaNrv7s336Nf+QVhY56rlfE1oZ/j41t4oIWZNS3F4MkrS9GO/PxVV4Ow22kw/0Uuj5wftoKa2kum05o2HDsqyJ70BOVG+CJ+FLUzNkbfRAwZbTMZAPPLb/He9lFM7QglN9DUIMloE/ZKKGH1q/ABqXq/djGokLDjJWUetBn99n+Ie32n+PdHOFBdSGr405bOubFbmjdC9iPpGzT+iI+t6uA1bzphlgyKoohXvHgezy03JoikPAmfKjG377/ESGBktqUD2A+AMRhxXdk3GSlnvae+cedlPOgO8m1tN7dezDLxF8Z038t5yTm4yVJi7o7NUpP7jxse/xVneldU0lmzi8Nm/+Hu7WpSS4KL6ZdVh/TxY6f/854W5l9///8E8jwBCk+1hVVCd+Jq80SJ+aWov9Bl6b7RCIbbcLiMmgbFiH4fRwb5BLc2BNI+LT0VQL0nIGHjjmCG0MTwCUs0zeXZol9/zNfwjktbSLDwo2dKiyFoaGlEcWRVnXOYfgvPKW3emQqDx5atxpkMb7sfznQjKsSIf1tGup8jVkBpUiJWM/mrdjKnCFWD/Kub/tYCAw/+/PE/8F8MG6yk5lvjhG7eslxNJdws8Xb08VjpC0tMZeidjePt4aZmjpV9CHgFXSUgMQvBQOEclQxpfm4WjA1sAu3HbuYWuaM+GfDwbEC76Ch7h3hTgieFCgKPiypQaYMp9tTnxY9nkfeFKfwoOV3qfb7BHuFagR5jvTKd1DSaBfbIZo5ur90lidq5z9pimOzMy/0bspB6HEtjzKp2+AW+q0Rk7mD8JtjLnEd0qnhi3biRrlcQ5Ypvr4L8qIzjYTkjibU52I33i6sc097pvx8IRDw9AsPiqMR7tJoXQIOrjC0rDdG2ET9VcIGKLgrQMh9+D+alNWtTZ+7pSvWpxaTlo5j5IK8ts/FGhRzVUx6e5+FSCuG++S1cZSfInXye191m5+jU2MTAHVLTfb1k2YVfyJ0vr7k48PLFQ4Oupms4knHyB6pT3x7beCaRzeTx/DzTrmMzGaE2RFgQ+PrIVvNEwcQptXuXXzDylC5h6wyiNHGY7AtAYy7D3ZjYF7W9V/sxS0cDw9pOs+x5UR9vQMGgP5sdpMyWyBO1GQe3QhOt68+Tq7yrSSzcBpL3vnvZM+HgLqbqx0uzNOU5hrJuSCQq3a3FP5VWg+/BwmuaMqJO0pIipfaSG/Kv7r/DeLnccdgDe+B/eAm44B2wNOCbyx5AoKu9r2k8Q0OVEAzpMoqDLiIZuYtuHsmh4H7R+95EAXJt17mWbQ2nHssX6DmgBZcs5ULnpC4srZDJa9KkRf2yZyn+xL/VQJQ0ku81m7QdIdwSSx1GL/JgEupNE9BC+z31DG+X0xQGOHcvvLZiP5XstXcVDG+71Qgl6CrXwPR19Fk9GNkSYsTOmYCoq2bmBgv68j/zCmo6yBOYDfrdUsSsAFbHjSBOm9ZVV+qh193qx9AQLLD1MbqVbLdrLQkwPEqd8X8pErM6nb9CgmKvpBfVssVWNlGkRrFR2TV9nJTcUvENTJ41u+9X+83Cfvv8itX//1Hc1wrABHAFEVrTBOxYqnSYFniZdrPqyWFB7IEEiUlRXWmqI+Og6V4JydMtdMoyZDYaqQa9gKe04dWZBJmVFsqj/mTHMEI3R/2ObQG18lrNIFvhZbDtNB1WuPpl2UqJiOM4Y7KNT16QP9+dSkLRXRGm4PjnUW4Whu3D2J+fjT1XCFiJDU2cw/FPvDCX0NJpPnKnSskUjQY3c7VL12o90JVW4TfCphSyyrVIDT2j9DVPRPuN1+XXU2F6clgGYy1AdFfdAK6bQjpKkXfdR4bfpAdns1gcqMdkiUr5QzKwTuf+q8XBBv4xCzcDwSwAjQghJDQ3yoZgi6IonWb1fzOZ2yFJTb/BelMYbGKM67wil7//9t3ikOS3MVOtuQirf5OCZsxfhv1+e1ATBS0KysgdpiWmlXVQClE/P/k0KkEfO831sx2MwzCsWlc5n607MXpOwXqLr3IiVnZTqH2ekGWqtA9RxsCbID6ghu0xv2lg+YDFe25WAGMsdyjU1yBfYeR6CHlhZsh8FTmMSAZafuxY+J9fgPjsTH2ftbjGcK2lTaW/HVydKdUnqk6o2DK2k+Eq6u908Sx+mefiGxfZ/wqvBIhd8K5maif+q+S5iOkCCNxc3guK9ezmmLI0gy96jR4cFYizrLo7qmfrThuUZ5yauWmtlr7E4UrsHO+H1U8o3y5OTcSIM6BB2JeG+NfUHYbsFQM5i6SRd40qoqQK/m3rbJNSxcN5N/sLtw6Z2+1EW+XKfhuTzGcWoGJ5xa/joNokYMNX1G4PuRLIEaDf/in7pDgNye9h+39RYYcMR7Lw1UrHvCzX7taaPTKr13ckI9LT0Y2aCk+8Vb06clpQLc9m+hwU/dxOTIwXRb/RppPtU2xXctJpkWVL4D7EaeWAkusmHm2DvRqd6sTyZddpgtCw17vnxAP7UDEj5BdqQz7wVzJIQTBmdmcoIhaFsyLPHP55A9Pw+C410aci1Vxj6/306scHiNgrpwrGU3HJdbvQ9D3Jaq4eD2anP9YLHd+xrgFeNZ0v3auDnM8o5oM5bIwDlm2vWrGisdZhiI7DYGtvWSZiCac265oCvolTy2+lHW5UF4nE0duNH7GUIZMLO6iQeY5C9kQf3n6tX+vJOxfnoz+ln6VZkoYPv4IY2BSrx54ki8QdrQpWXgqRoigV891EIxMWTo/+NM0Hw9SaPmjmu0PJsOfmHcmCfxpeyaC7d1x0vULsRGjntgxF3fFYncCBGzE1Fz1ZaIRJvpl4HASWE2b0R8bKryOUIjqYiPd7OSJQ19f0Y3XKYZWnF/+yZjsfkfrg/dBXuHqLAfyK+yq0yVFcHePgYJj0RoHohgTKWZkoaHpPQn3rgf7d+ZBW4UKbylXyVD1CeMXXrCCyJ8MGcGEC9VWzIrtqHqkHmQH01kI16IueaWxtNthDy1AQD2Q2MGAyUsPzsf1ts3ITpZxe242TCdCluqYs97x1wmcM9ZHtyn7EHHWFCRQqZl9bH9FtR+pZzLGo8/RaAAa3BRIfZs1lXaKSwg8tJZdrPG6MHKYp8yYA0Pw+XRn5SyJXakzeO2o7QqcgIJFHz7OTYpj3XLszsCosSDK+QLWCxnXyu7Ax1DSrbEhM/XSHl9e5qQSbs4HO9Ux6U30ayBiYkefs6YTHVwshLIYW53hNnYIqtJ4yr5NNJzcQQjoVND1+9y3hJzCDm//qe2JGmksBHJgRYGgolB06V3MGA8Lb92C8M1xFl+MBopT3SM1qyiIkQ7CGH1hG3K8+PjGcJMksZdeFw+ra9PLLO0y8dIT41puVyJsSVBTF5RIyJbSHsMlcOBaDYvi2InUHtQF5qIoVlh+KUT+DS/07qxtQSDlG4odC6AlppXmXu0CeQFvtxOc1zScmVkbcV2Is2QTrZDgpH6qIjWOIc/JRn+jadO2JQ4TKns4o2KjZWMwGfS5O31mKQuc2ohreEWaS2bHtRJLipg6yO4ST0XfyhcTqAp3Y6cvH8oeu3TT4iALsXApQHSAiD8myp1/W7ZS8s8GGJl+RfP3jQ/T6Eq4qRpXWZlG1LwNvZOHbt9LtV8Y20fXxXYHueSU5qkTJ1iIPEyD2mVk7NqVVjJ7EDjl+c4vEHPzPwVNEdkksb/d9AFIWPSM4MHJgfvg4mBZaiCVGXqUZ+ZSH64CjTMFRwQO8P2D4g83lPh2ms9ie+NoW4O+xwGUW1AHYD15Ds/cJPRMuNNDOTTNPXUcvLcVyP8VyqwSf73/ajbdCk38fxdQ98az6T+QcQKdf49KYdE8S7BVr3YUlu5cUxoSksullEaefSC3jFKeuCuSdKVoLSQPH+CYOn846/K/An9vbqn5wu1Ja1VpdKC1pqh7UT590JlBOER5EI7N13i7OO7EZtIkYKVubmP/M9M/8mJovGajCf6w3BAhJGB1807m3fUG6oRgw0qkDiIF4yHzyWYJx6BHHhvhaiIghNmrgJK04t6VcDef2V7Rz3CIfD8kWydN+NrsG504sUi/jBSsIswmwPzLCo89ozzGnO7NJJ7M13Lg2lSzyGgx9tzaOuKwyagfoeo2UgpUbpzxm0gBwGqngPsfKf8XTXUZPV0PexTAz/sxxFubK3Uf6h1Pk6dtjilNYWm5kn69YvYIWhVt9MyAW7tkK1Knvv9Lep5w2tvnnyNcTC/yJCyw3RstlJGl5I7e0AtJnFhA3f1RF2TTxzfP1nckAP/nei6scMBgZ0R2Zvv0oSwY3ocKmf7DTeqPlhm1vCqMCTMQZQ/MsOhPCrwbPTlmxOxgGK9SElOIBNC2hqBzPcR6/2udCQj0k+8dwM8d9oqDXIBvDPGreL1VjilTZlyDieDckgeqAo4c3f9DgSwAtV2iO0aHAMo/zjaDKlZuNdHtqk/KcbKc4nNtRQvhigzTjFkuYG0Sf9LDjmro5myo5zuYpSIvOTcdeO31RdY8mJUdShZV2HyQ1ljXS2ecj5t///9U+FuqcaOdWdwAwsB4lpuOADkAyGe0hZYDD2uU7KC2Bh2QkQ2AqU0old+gUo1yS90onxKmDOwf6nrJYSyISe1Hyi1GTS6tBLhucKYMg34mJF96xnek1Qw/fObJ5+GSf5NRh7X0ozKVDU7sgtxqu/3Oo7k2XTyGI2W207oEvCXEModLIhGKj/4kYJlnwSrHK1FYtBB26Zue3O0ZFEvPr99u47Tu2vQ6jTwTrlpbn40UDyoMojaARe6a0ZVT09WKqAaQ3eTA5nK+N7800fGgflkGaRegKFYCGLtxgMCtk03/tjwoWATh7Ub+mCjQhuwU1xz5WFHvo51SjJwY+PN8oc1XcniHGHHYIS2fDpftPxhRobBdn6gV7lhGJVugEJj5tRMHxWMNTbOR1XkPJ0LPq8fPS0BGqsJBcf0YqF9miwQGxrl4o5qav3yKzQiABv6eermBQW6uiTesifSqrL7xS9eoWfegO+9ZeP5ghdcs00Ao8GFVOJVNAgTeWpNbf6Lpaa2kaT5bLnAvyoY0NldPIWaZW7e5jCZRO0PrnpUl0Jcu9DmkA5qXIV4u/bsgnYo00jAvZDf19WZwz3a8ZjFlym6POx6bxD/VzoiCwUWDnZL13njhihpZ6kc82BuleTI7MivNjaNy5xPmrZHFSJ+p7nxM2TaAPZAkfH4Rn7gkXs4EKvGlUheFaocO8IZRisMME6WpaNJxJADXmom+tqVudiaPypUEjb5heYFv0ENAcBRGVx/OvDlztvqyGNAFiCmJyQxhAgxU3W5EVTW1KtJho4EJL0glN7TRGgsy/FhmNyzEfPj0st1URKLWAXnO+Txv19/l8X5jNKlOJ9OI11X5NBq399c7Oa7wqTm73/C4o6T6vHCWOD8O+z/Uk7aFjL5iAirwigq5El2aRXZJFk44/+FDGjf7JfAt3jggROzH9onc17yvMeteko44zWKrbFBC0q+okgw5ux+Sd3ipE2XRFncAVrX/qvgupTqJcSwFCtIPdxQREfCVCFOaw5gxaqH0ri0WsMF3nSQj/1eRgJZjysF2WSq1hQPNB/7e8Fw0UIGNtwPtzwg9OEOESlDeoCbRdQwNY2ogIb7FIniH60/0PN3zuawrtUHBfIPtescPzOyoO4cVZb2RPjBPaekJkBoAEUiyGuL7CnfZomW8TGv3DrY22TfrgWtzhlTMCPd+x3Y6cSuNMdJGYC4UzqSP2mK9ZfhtA3pIYYAUKtUDC1vavHOOaAYxolBze36MgNLzByeTJqtAPpZCxifpRcVTTQdrwajMpInCgonQJzjLGMQ5zPwZcR6Kws9nZZ05V2ihUK5u7edrtlRewFaAtlXxTgsuMC/D+zDDaogBF5ASIUbW/l4tSxFLRv6e8tcbkEgnEsBayR2BFzHdbH6ge10huYxAf4H5yu8YzKHtPkrwfQnyr8rvZMN+xEzn58bQ4+va+vxOIb0CQSn3j5+ICBi8jkiqwHK9TOAwhVRCHupdy3oE+BJ52Qrb6Yl5OZn2mzT7nvic1p+Hvl6NW7mMR62cy6Si1fh2ZikMQbiySeacQUu5WpfGQdnj4E6SY0JNBNXewp2/ZXZ8ZkO2Rxa8bSKJxLXEjB/fQpe965lxdZQ71dWkhcUDTgpMYg5wAgOcwoCFWNAL9KsuWcmYpEao/9X7Jt2ZJJn479bd98PBKFvcexl6dOluwplaGNbK+BLN3Tk1YnEnzXOtXvJJjgUcZdgxbcbSuUjpmsJwvcgcIEhZ68tHurqTnzrdXUd8zEFcDCQfimj1gW6phthpArxMnhdHa7/0/DKhwe59+yeuUOWfzUvamNnwob6OC7utvi4a9m7hl6JZWUj/SXBdIiM4EVniNzKeSuH+FQSRQzVEuRcrU0bVS0AQF9ZGpShU8cDHMhyzjlzwqKVcu40aEByxhQXmPisxjb1sF6wnqbGPlmLWMNddlomRUV/auf2A06HHOF6OrFm2I5yptwpq7fY0mtf7/nX37JzPoeU74zC4LL8OTwFF2lhkCaTLuGHViH/y6jDruJIcln/TxGMF0xeKZ7VztZTfWr41zalIdPBaRKUMmulZx2gIK8MqEGZtoMpvwHBsR2R5ay0gmC1MBT113wstAA08Ow1J/mF4KPCIxAW8CVS8YRFtCYvNLmoQOaJoeEguSDt21jqcWZNvHrF2QjbGvmGqYe9D9zhy6THtX+3uDICpFTTGa/Vwdnk8xpGC2vM/Ucgr0zLEt/7FgDrXm1hoMNHq2wjF02CU/j1GLN5dIoJIE1gM6mKB1YecYbNiI4eHkEoB5msfxzKPgxKqLoUUAiIEXoSgRBxzRcqT9yOerdVC9LTvLSavrnGI6U4HmkKB4e30vQ7P1X598lENBtdqLbxiMj+QgoV6Cebkbd5NIMKf//+tHB/Wsuu3Q76AMtB/0jHUZKv++tGEmk1iPmw2Q6Or0oZuutAX/UILpnywk6jey7r+5nT+Uzid2ESPLxlQPPehAnBaSxu1ACFfXYGyLUTIcl11g22UjY6D/gOENnQap3sPG+eEBolibOoUNepijwpBHd2wg/yBKHnNZKvJCEjo4BfdmWb+VmJU/p815zKZV0p5DpJCLbJkFur+9E7qzWeK3YhJcoY2JMaw6keHzmu4gvaHgMCWof4R05XVwWsTQOm6hh84x2DwaF7FDsKmnSYRNvbkAbdSrNGYkXd4wjLIE/GfDl0jZSEMOGS0fw7PhL9q3k5X53jKTA1z59DGUN4pLMlO1ufo2TfUFQLU9xB6+rn30lGllMhHl02bf+fqjV2swbxyubeHSwddvDQe5xL31vZmBFqIOh53iQUoq/zRwkchbHKmQV6/v18ZMfe/QulLCvEYsjsnshJN4XOAIunYKrXmDIg54mh25I5NV0y2IIxJmnConX/7HuRy0dRDiFHwW+S4qknneLXJcKDJ2QY9tcBEj4OAPsuWu/uld3mP8pybemgAAHVrPcORyttbH0bO7LGh2jn1zdJ8faEhkjPczKx8bdQOyUnAt2F86UAv/cYch7+kF0HVq6aBAv7Cx0TnfzvpxuO6kDgz6Ed3c8ll/rstK7t59bFVBNsHpTfTfbf8HFtALnrXnFZ7MLdfHHBbBmUNZGXO0OD1+/XXDAB+/vg7TShQm4qUGavBXCyxS01n/34FZ1N3Z8NRaL9pr1B8Plgzgg62TEvVK/ilQDl/CSuYAAkfxpfHuP/u+0w290jg93N6GKDR+CgW1HQfnbm7Iy+Mab6bm7xlrbzzEo3v3T4rKjmXflzPt8rQDUjyJli7zCt53Wi0yc1bfb4WjoZ4uJpJLptIbc9/uj2q/j/lTFNazxpxP9RD8LYxQqujo5Tyn7m1RFYc/OtqMjZruj8QPp4MWYX9FaGKeAoZllNEFtzfWNJy/rmABURTs2iiV/v9zJ/zKBrIzlbV8l/7fdtCvDLm4MkFcd6u23js3gf7dUbT7hJ9nPSbX5pvjkdMJjpXghhfQ4jbAAA2RB+ADeLJlislsRMtm6MOaKhgsFFqI7Tqu2AJqBGb6/cXuGj8wqcxSR8m9J6HhS4UI5EK7EdTL1mBsyWYrlq6+vuYxfNzniT6SztwTlQpdLO1pdA4OgK5vKmkO4HQRmnvo689t5ez1Q083jYaI8osrwNM32K5es7I1Up7hn43YaFHPaaqrsm8ZAKZum8EKK+NAM+a7Bi2UsRcSJQOwlZJdDsi2z7FaTgbif4KR4wX3JGpXGwgtrgJdpxG4FU1rYClcGyBKNf+wntb7sSZPsMhgHh6CIWPEGW0Y4zg03Y0NKl92nON4zZjkXcVm5/zoRaX3dR2iWgZD7Sw80NAgZAUqwVYpxhcie+wsxoR7W8KrY37C16dvl9E2LgpAR4C/+/jH6MafZuXD33sgukAVMfBRFe6Sv2y9Nf4QS1UjPA9YkqJD9rLyYfIoJdDbVybV1F8LID1JY3fjIjkyaf1vxwKDt5LXsNy8fLKkPuAq67xZOwV6ztTzza1zl1vOIsPMIr70IXII6V3Xmk4fpeTYi/QvGh53uiy6aqoEfE3IVm8To/ZCrxuce9JcCZwdjcbKkD7fgEVnbgPlMO4L2JiMjhbsNYZGtXY6LZOeR5DGHNXZHKdBB0s4Y+eMzdvE50inHXCsHUupwgnXm0r+/mQDjLiStDTt5vzKXwrV3hS8YtcTAbgWgJifd6RTMhvSNnpTXKt4zRLBOy9RpHZPuvDNRQFJkZmohM/9Tf8nfVQ6vQT0RCmpuGBo9OVPlfjd8dsi6iHG3FTZm22al9K85Bt/Xs71Sf7/qXNOMvTIEURWIGTuyrZ3oQgfvfpZGg57Q/IpR0aT8PAwwZyRiYGu99U8hJ57BEZUC3BYXajg62bFtAf7XUAhNkhcraqJTYvu+f4lDBQdlSb98dwej7Z/ivnMcf2Iq2smxMK3vQ15eisuBXClMUD806YLUfV5htlJz5Ayl+YyTfNddJ6BRXfUa+CTr2pBSTy1kRwPeD7DV6QcWHO05CkfmevXnnj9yiaQtBwzka2V2KOPIt1ASHm0AXmTitRL3Kr+RsqX7hIwBjMXc6uo9lhXuPn4h1Vk/4ROKbFZVaDf5a6rAEgX9CB/fk/qc3C6Y3nb9ThCFlbZhr+4zk8b2pQi++emNf/LDykdBv9NruPQki3QX/7s///9F6ywdHb7eXr+PLU3pj7rPumzXjMeKrfoxhMYsZPf05n582AmAsZVjm72Y5aNRq51hJ5ylkjk6Ve6z8GPBLH4aliQcQGx5Kuabc20Q86yoXzQUsVbMySuzD///qkiNBN53+xuRPfABe4TR7rLSnLgj1m5XJBmgh0v7Mlif5kUqe1aFFn+x0HsPGA2O/dOyj/s7oG+fZYM3Ntz6mVW6j2tpnYtorFBKgA==;" vertex="1" parent="1">
          <mxGeometry x="-370" y="229.99999999999997" width="620" height="413.23" as="geometry" />
        </mxCell>
        <mxCell id="A1asgnqgY_s7y4sJz10g-2" value="" style="shape=image;verticalLabelPosition=bottom;labelBackgroundColor=default;verticalAlign=top;aspect=fixed;imageAspect=0;image=data:image/avif,AAAAHGZ0eXBhdmlmAAAAAGF2aWZtaWYxbWlhZgAAAOptZXRhAAAAAAAAACFoZGxyAAAAAAAAAABwaWN0AAAAAAAAAAAAAAAAAAAAAA5waXRtAAAAAAABAAAAImlsb2MAAAAAREAAAQABAAAAAAEOAAEAAAAAAAAoEQAAACNpaW5mAAAAAAABAAAAFWluZmUCAAAAAAEAAGF2MDEAAAAAamlwcnAAAABLaXBjbwAAABNjb2xybmNseAACAAIABoAAAAAMYXYxQ4EBDAAAAAAUaXNwZQAAAAAAAAJyAAABoQAAABBwaXhpAAAAAAMICAgAAAAXaXBtYQAAAAAAAAABAAEEgYIDhAAAKBltZGF0EgAKChhmJx0DBAgIGhAygFARQAEEEEFAtF684hmwEq9iyzdtLrTlKmg0Dkjfi8A+wn/4TGQqfv5nWYj6KNXwy+g5WikGxBhRKiBrnqGVAPb04rlmWstayxe8JgSGO2DssJCn3TxDJfS269kGBJ/O8ubU8pfsE18q+CJs9xsAiNyYIY4jbKc3GgsX+ulOlduGyEVDdf58Q0jLtqRNG4lMY4Q/AivCYGA8SJgbH1H4Inx+GjvgJ7B9TGNOyCUVLmW2ULIhIzbD3IVj6DiNgPIVujud7KxY/fSdgToGiDPhdv/LL+ZtEsfrtD9TGWiAoh5QBOsi42mzRcCgo06D3xd/Of0wbqhODOXjSSCU240EAqm07VjeIVjgtsFIP8DXx7cLGR8/R15lnqc1rcTKB2KDJwmneI5g2OncNr1mD8M7kJgGaO1jX0wRcGoReesmSzlvBVY+C3odIQI0i/BfRXxQrLCHWNKTuvlt+XGJt0zxMtwyGRHUfHboZYbqUL6HSU3zU+0POH7+vkK/fC+DGvuL8phTCOwNzlGPk3xthvHwZA72wkqECZJ/z9rElDbnCwqEvxiRdzARIWZvNeBpuokkMT6JU8KaoSgCLUoR+oCp/SiNwmJmeMwPRUMaEhpzAACrsFjoPb3QYXo/V+GobZCFH2w1FiQGhNnCI/akSjQ79kzFonABSq45zLkia2mdjimRsbITxoG73+0IQAM7RSKA7OpCklkYhvc/b27xYvRoY+FUgCGVaIdNjf8+Ai8e4KWYQtIJId0E+JWx6TOgWYlIgDfC6LnIWh1GCszM+1rgGbLSEUiUWpDNcdzErRbyA5LwpPPmY0qj52e+cBFzsHkL/YiV/3CxfQZ3HW7m0a4b4XOquZBVsXy7R690tm7XZDpBQDcQlIUCzum0BevyTZUOcmTd8UzPl9QtbuIXGbfnXmABDXWM5GBpCS0BNxtGAEjS+YcnfRfSjWbXlagyx11QIF/nMnvw2odgiNHoG3s5YAJ5/tQDYFD+m8YUrPLqmgtdG1aAtnldu4AFtGixZ+BFmnXUq03WiE4GKC+nvwClqelYIdBdS4PZajscYBi5lc5dlRs1ox+tPsj9VceycLxSW/bI50yUlpnJOq/p6OKWLcNrXzrFzrZaMvsfgPd6asSa1z3r2FLPSB6IUbdVpAwZklwBpnKjqcLtbN4TGPx4J52Lyy0K8D9tMP5UEZyWWjbS0+0sml7fV4eh9aS7rcZ00l2LqUtG36cYp7hBPXacbDw0sBIyqmkowVliAuH+TWpMLu5LmysJEHec9g/jxYaCVRMKlG8ctTkfgSSt8sei3jhVY8h8QXekATZpTGMz8s7fqe8ha3DxLoWmBJYCmCI2sPfPDIcdjH42OcaKOD360BWTawp6yLY0yTh5iTJiumRThoTvELdnbiAotRQ+cwKAPUp9f02uqPfz170gi5z8h7oSJZerinotYFys9c5YRas13KeqAtj9Q0ugNDoMZxBCBlcJcTYcQ0QyoiwnountPmJ1ruw+7jDPBDEn4+PrD5UADluvhYvuUq3TAi7XFK37t8b35KCgWanveKal3GVR4mRHIPUeV6QqP2tHrJMRtD7UeWdmm/yMbP8P3/xIFS5tFLhvZ199FLAXYBjjrtNkTXTeHri08ZHXbRY1dFflMAzyT906W8LRYbEs7bLR+WyTghBTD2qwhtXGDglwv7Z5I8kOqOKlkQAX9ez1+vE6x20PXlNP1RfSKnPg6l3kpiIaxjVR02vVNmLkUTz8LlAfaKWbbpek9Xr6GG+RxNwxMt+TPdNqeBS8Va2PG3yLz7h4RVIhiNQW9U8OkRD4D9szO7EL1+ovVjZu+HzcwnqCOVWs6bIvrkSfhNvFW6toeSzQLssy3QXkfmYo2zIbB4O9tFniPv9P4b/V72Bz6tydpeVm/m10oSZF0n1j9nXMBons4wdUVyCl9SX+2NpeKydgZIao50q2oiR2KquOexLXF6e5l69Fo02zkIgP6OX5wBZF+Rf2Cj/xNAEQG3PFqx9n/JrG1ogKF2S3qauRH3QCmyheABAn7ox3AkJycsXodFjPfvuBCERFyzZOgNKjp4yEYOy4LDVMGjcQKF/TP5zC8JThej3AAhyM2GxSuZVu7KU8epl/MbSzPaOM77aRbEJIim31FOlYi7tnwW0WxYarbiH69MryhUU2xQwiMtUtRogmwFf+MGci8WPqVHt0lqRxCsSUl4XknpByRXqWrUEqRTq7AR+P13tr/bMYc8po8hfrwoL24PAbdaPwIypdaFrPNq/pUvxsnlBO/plJ6MwWovRSsjlnNG98DRiL2UJdFaRftYUbEHokK17p/QSbIkDT///8AKhxb5ImwALpb9k8JZP9UHc8xCxmH7MTbCzAw7hZ8QvquRXRW/rPZVftsLMQnSvug35DwWL2emu5HR1Hrr5VUgzMfbt7G7BuwaMEZAnc7agAaQCyUmkbNtrtKIA8bgClcRUxwxFzVXh6qWRQPpgP8BezpA3BPTJBEaAaBaKw/VUyPVRNrD+2jp65iPJDq+cKOoV/cdCX3xBj7lGQa765AP9+jaMxJhx2WdzspNE+wEwsm1uXpuq5+61xLRSQm97/MBqMb5YO5aM8UJuoHxl6TzfYj2bth1Uj3kA3Clv0CEQxAcBcaDktqTxn86I6pBlrl1CBpbLtIK42afq1Gk8mKuBj3vV3GNiweKnALK5Aya3a3KYLUgVnFMLKx3m/dfGRfVIcfn+CR6NCyFYRx2csBfx9/4/6Hw1mb2asYmH8nXbkEAaWbrmssge0BE4VJqcyxGL5C9PY2V6CvCVkKwV5yINgWlmHNb2n3IqWB8qlO3SaMtIuCJOWxhrOmrwN3Aptfdjqf1D/F51EA+bNb8z4tq06+63xO+OXGT+fThPmBjmWJsKo7aOSqlF1ZsscilQxQgdS5Tugm9mBHQp17UYTUfgr4jC2QInZGz/N1aWSUxdbO42Jlahboi0JQnli56TCX+mHdXk+DB4OzcOFNcHFihVTF6Z2jDH+pH1NjXSuKc0DIyyoknNokuvoa+6JpaBHmPPEssKdfrhkBlx4hgZBFCdM1aDpod/9yENWMVjis28R5h+n7Q4hM7yS6zwn/VCO6Xg/gDFNI22X/CWJh5H3zgRCm/GgIIEHsULVaUTrIwsOChe/Rh/9U1Qrrj5x4ZbMv5RYjQm1sPR/pZffDh9kvAeTCMzArf1E7qGZ0k/XNhzEocw5hNueKI1vFp83TwAubOnvveNLpY1j3dDvwVLFSFXR5f8gNJHm1m2PF04dpX3y+odpiSXy0RDTX7k8YYSgIu7rDfMCg8KGovDTNzMrV9jbLN98N8fZwahhIvxDorTMHj/xgT8+RDHQoxJrfwFb7nSKri14VwKM94ba4kmA1wknHpCKZS7GT1K1oeYboXgBC5gNAZids/QhzcyjLZIfyW1iRm9ra80Oxq6lHvb8gLMlDWKYLzM4lAFcisNBvT+XmeYTarOJan8EeSrMoCgXzyQzwOtutHUkQLohlJoVJLlcFGvPagS5JTC0qG3ZjLSWnj8O/E+FY1J4pCJi40GPS2f9W39Xa+Ie3rQBDahgTaAssbMjSVSC/z7ACUm3TkepFcvr83uciHyRnkcO2pmYk9heFpWnmQ2eyxdFSWq2eiWzE5+lM4O1DOY4PbHD8aXgwPDlgjmY9Wfya6oAmts2O/Vr2ZAYTgRVZP6E8tlApEcfdnCf6kZ+t3EHdqp7uFqgrKFgoZXryHrTVnO1xRDLlr6BDiTe15S6aw4gWY3YZOGu2Gsd2ZRo7X/PeJwjJLM7n6AD3oAtt9EI6WFwNerQY934pSKy/UB+Vco7nLEogR/mbGei17S6Q48O6ENHC29hz/bSfrSJVIOMqG1KTR7aI/Y5ql7CEMZfJaNn98gaEGyUiWjzeN3Z7VhYf3oGOBO5w0uKwqmNilPPwWysI/r80Hy4CWYmf8VlyRYwF7ZBoVP59IITFOM/RoiwcLrUbWsu/DXD9jsOXwNCr7+LXeqjeVuDqQJIJSCera23KpnW385FeYV310guunLONxgLGq7gKVtYlqmPKKfw294SMSaMlw/hcR+MigmqkTv7XV19ddZgSTRnz4m7PD29GZWB9karN52c2sFqi2lfdRG84pjB4vHDxOknISEl1RqfthEcyt2ybj4uDVF1ZTRuO463n++kxI4H43NeYgDi1upcu7j6tGenIHfWpCIFeibIwY6/ideGEDIp6LqNvRGIQvoNGojbI94/V8zZu6OvQkgw3wUeqGPNthocGsfGN3Ai6iZZFtIIGo6ZNL+CKz3vic1LncIRfwDHcMtgfYZ8hq0JH55G6cy97LDFWznFbrD53lo0z7vT9WRFI0AOwYpmji6AR95LjQqbhLQbzgTLkWS7zHL/2heLeYUNwVe2n/4iKW+ki1tfN9doeRfAWbvyoyzWvq382IM/2S3ywIfamikZzz/fl42diiD+vUxrapErfkSphYOM8cVTaNpDoQSk+aTzmr66UVPZV7a78iEHazB+odPCxs/p2zAcTYS6gJdoDIp9rnMbqdHYws1DHZSPp/uVu91FYMKsp3lsj1ndXmYRm2Z3OL2hwlnT52F6tT78A6OH34B1AEETfC9A37Q8LoWHGVrlu9WeDwVOUP/sHOs7A2kUhu1L44E4gBlPgieSwBwLvZ33tGpgC3ROXIOS7Jq2Ael4MxFD3QD0vlk39fAZ+Mvzujs4pBlKnpZUqjCfpOTnXUFXYnmpbdFPdPWizoVQhCybhHPPMnGhEatBDB1VGs39tmypEkdjJm3Hj6JcoRZJvTiyVpPUzR37zq2G6y6adcUhPtugWbs9mrF/lAmOR3u9t9IQhKwaK2frhUtBtE6bGAPSGAKPcQCMVB9UqDlcfX6bwOlQCyAXfWUo1jbGUihKzhoneY3XQ+THZz7cqq8EAYZQ/wq0p8mDyEvTcp3n3ZkD3mJxmOnXdrK3oPgT+f/ir7GIw5jqB0/lbm4w+K4Mc5s3uqg+DGNL62uP+zvm7NyvYYqvHYfLLbWA3IUTvvj83Zp08F8QJ15nOVVdw6PODLB2QHMdLHs+kmHPed+234h0wbWGXQHiy3QgC2E/kSh3rNK4XSwC0ADXjsiw+ulDvoYIfdOKEMm2uOAtet5Pg8EXCjpnBj6KrZiCwN+ZID1wWGa42KY6NuTKpNvM4NpsPKuwcsiKH24yN5cpetNG8CDHEotUFCoLKCjubsGg5DncuFVRuSf+ZcJWq6DDQFOXqHBlhXOm6zLxkddlESZrR6CoHnxGIMtqF/+czL/sE4Fu+HyneDB5k3BgVmwjYJRudurkJtN0iST9HyIrcyIra4NgC2e8KV5yk0Y48TI5ksAe1y0XOybCG788jn+ki2QEGHVcM7+Dlt/7JJx2++4mr31v1UlOgZx9Wmg4BOxXeD8NSNlQGattn5uqxhjUMJHcFxuagqa7AjhP0UVC95NRDxtOtijZu9aM9bN7GyD99i/Ba/spfYPTB+SYVtGjS7ai+/AK/wMQUlkT404FJaB+iXdNQg0Fi0qbKIxU/SFYHdu5abaa7/Lov7efndWnkbeAzzKOkHLuAgnx63gPNL3DkYCWXxcggddraclhFkbPQtsgB6O0LzbIgPhznAWRe6BjsOLXxFjCxcZaciZvFiEaIxqKx2yh3rh4ovhOIDW0qZ5Azx58FtxED2Tnwt5ktKKP7uw7j58cfxjeM7Uy1UdzIfkTMlhE4eJZh9as0cvgs5+zoPoQhuiXetgNq0wOTWyE16as2YMKKLmReJFL0w0xkOLs0VDh5W8eJMgQiu5652IUgWMLESqcXua9oJqEtRfCNq4WY3czttn1/Q5cGXY6enNFnxtKKKYrI2OYMN21NBeWSLYw9cVkR0I+ekHbXzwK4xvGUuSjjT6jB/rIztADh8FsdaVyBUv97jpOXGgzj47cdohsEAw0MyiFTXLtiqO93A9Ga5PxYNT8i2YG3V0XbAznu/qDwFkkqp6zEtDTb8Zmg5DmMjiT8vpKpMB2o1MkxwEg1wjZZTx6u4WAEqAxFTsLUL7vJfA0oxxFMGSIHLU6tK/qsciUuIJdlzHZ2s3ZkOv1X3j0I1qI3X+DoQ5HXn/+VCvJosvxC3DnqeSM0A1sGRTb0iQyhrB6gK8NN3i9zvdPIGODB7tUqFiJ/mmwYpFZKnElD2s74ANfxqVLFTFhOJI5QVIVrKcHZjxhDs5pwt8wco9hZuqrRG6gYlviVqKqxj5+Y1Xdm00A/L7YUjhO0rnylApMwcCL9IUkz4iTvRXR3w4aLWnkXhaVAar+smpQS8PUNJk3kJFYo4GC0LghtkBvP9zOkfirln4/76sxy2hobSdKJ0bXv3au5x/lgFwj9MD2O6W7rojFxcnWCVqYBqk+O2G11VdcG4n39QfWf35YX9cjwLWwwEkvGa1+SDYbCgWPuRJNXvwtzuTTh9r/cDggNo6nGBQ00oWLUvVGoVPKtccVthVRFxk8wgtsfFiBjKVcEKyjkWOSJq81n0V7DJsyze5ElHIhp6viHD45c4SQj1AmYKS2Qk2LvOchKOIN6fMgBqYzUQFt2tMN19is/oWDWzNgkDik9j6L/Hv1kHx8JCRw4DJmR7cLflh6hpS0ovbsKlx9lFYRHqxrRcVD729oDAmFcX6S2WNoPELGDVz/XgbuBgKqdqt7T2tQcmmRpQIMueiE4j6APj0tDqlN7tBSJXMjSY28j/l0PXky0sl6esxv+/G2VEeN8PbMSYCBiR+7O+RVZoRAvlkihEBOKwDp9YoupP+tf+xQur4wI20sro6p74dcHxwZSvSqXzXp/klYvXJNayABbxpurk5QNqbl0A5Ogo7+4ojUVqg4ZmUG0FAn//X5EiHJKU0NRhexKNC8dFmBjkKq/xQNnSgQwCPluupOE53o9DPtNrH5iMl1s9nSUVgh7moc9awiPkaaQhhpFlJPRzjQd2SG+6fhTfoHQJk4RE54GVVoruOB6eeyg0TpoBrRx/bV+g+ZZEW5Xzh8no6eUPhYhHDLX9YPk0+ajCOC6tIt3t5dIyfZk7koyAFP6/vfaJZa8AjsY8zc82OegWVWYkALneRX0CVCgecK+4mg5IXHD0RFLuAF6nN512R9nfNRHEgdgbjCS0s4UXrqkETsV7o+sXqwZ2Im8DSHvN6VHqdhg0n+k2B6wqSnk2hRCJRBcD6owu1YENXykl9fANu63/0ZEllk14at/wXizyTXtnSKyy//KqzC5DpRnblZryKdaCfkKySwNlxo2g69sVGzU9aoiKMeIi1+RzodWMdoxoQ8oApU3pd9FSFDwlpS7cevFjGnxwXM4IoOTVblGaGtAB/HGuwrzkA1uluJT0tUAeDi4DC/2KDVQPYe4ZbnjHKXy0x3RzbG93rBLq1hwXKLMt0vB1D9NY51wzki3d7d/8yetNo9rx0Cf4MYmaRh5k+rnkbszv61yRsIDTGtbuSmdFI6bKpA519StPRNaF4vl+YwmhvzNTlYoFyXOQ7Ig5AZglmo784CS49EkvyPhvWsATdu5//flxzCtIUH+euZVUDUIUh/UEVLjhAESC9n0TQUxU+DN9EnfbHuezvxZkYxidaOCi+U8ztZphliEIX49yNSOoCPwMrux36RcQM100AyJVYkbLEKezZuUCOOGvcFG8oZ5e97EO0Yad9ZnXSYX2YOkEnK8Cq/QJMHJjMZ9fg4jkr5LbCKA3sOOmLvqP+TZrhIvVUgm8MAqVRrpUEtHee2EeM7Mf1ZI5MvH2rkb8q5/IyOsR+xcvaiADuyFUppR0g2gZ5n4e1PJ3yIIqk0E4wkNnI0sreVhAxd87HbeSFxJYhxwuqoN9inVRcKYAHvYk2pQ6mRAP5uf/LKUubbWV0a35j2HDUcyr3AMawlDuENSdrvcieqaAr2dgbvAaY/Ni4ghO+uZMlSCI9xPd9d0YED78xOHRfZd8Q5TsSRP25GMnI4OluKFN1DDd6cg6D5vnFWzZo1SnVAcou1eaiDY0k+hNEc56yC+mkml51zU+Lw9gF6Zj3mimjM84RHnIF/13cM+lt2CiOUROkUx8NJVJ0/idGayhfaNu0uZcsIDiPsjNtls65ouX9fl4kHu8nw1wi1lRUFirLCjw/DHfEhXrJMabbKMiLxLhjPTVXg8/Xwoy53EtUvoRBZyU8jTbrV6iAd6FW4fLXSDpWCAyuwPa061KMXTeBb+hgLdRmH2zikm9tHJdnIh+e3PXD0U0Ju5IUiLTzCFWissdk5SUJlgRfQDri6WLKsRPDffGSCM9XrtadF1Un5bxZB1KgkELiEPC0us4iU20qsJ700PStVk8IIADRGxRN6NmJVBHpyow0mXvtj7+x0YVo2CmSgoUk+5WjRUoGn6es9HjA+cMczR8OLz03ue3rY3xCErAKHVF38898KKN7Ke5FyKhFRHG/uFmJQeZIUj4OyBZ2TLlmx8kHkwKCfV+nn00/zhsK0hHFREBteIsYWoueiJ67bQaN6RZaHnVcvn1kqM5uLXnoWMFsLQaNT4pPQBuyIrkx46xVnXuOrQuurGyPdsqnpOQLH+Lds4mAVcWeCFfDKt2Hp/SnpitQcjJj8uktICVOwwEljiguCNdD6f9+nt6vaHEtOIe+0TYRmpKrMHFwH+8XSoj/K0gJobn5Zv4SfAPvaDgHv8St37vPkR/jM6605B75TWnP8RskiYdXokad4kVEhtz2AIDf96wtf/aywl44PaD2QZdHo1a4gPfT4ZtnU6bL5NRSslY5zNQTOSGfj8h0y2vG29JQhcxIEOTZ6uJQN0P5bMjUtSUX8STdAvj63C4nUIfOwyesiBw00A/MpeJH2Elljwikjvj84lqsn14BObk/H6CrKbxH+jnDXaSkRQKeAO2HPXYpiad/NSO1ht6VbU7Rlx0CwZfsVQEtA7v9hhoUDwjB43quJ2/8CGCsmbSxwHR5GsZMSA2+diynYH3v2/UgqmHdmBEuYOgedYlsDplC9Kh0xPtHijDdGOmwzBpuKnq3Snl1hRdcFgpTdmxswFoIA5N7ysm1f5DDbE7Yo7QRbuMzJgZ6g1jRRCUsUuv/kxTtIOwclUbpW+ZZKW/G5FVcRxRRK+8hhQ1Cd3pMKvPEVysNk571cIlcl2fzWLOszUWPGAy83q9TwkDFTbbzzPXDwrjOn/XbbwOfMeDEsNcKv6dhabegu5Xdwz+01ueyQS0ijA7pB8Ro4o/lnVnCrZyGZFr821f5YQQXSK+LaefWbG5KNa2aqdSDj+0HJ1WSEWHvqr/CjYGpeBYkt5NbckgoeijpaPpTr6S6Is4zBLXXROYeZ9+4GRb4RKe625JRqWrTWkH1/QokH5KzaUE3PJN6tmdJYYfuEoC7nIaoqtkKpLDlQqecs5otFXGFCebkaH2BouIKzQvYr+zOa73q43diDuBJKS8TI3KgXxldL2LWjrqQ2Cmb1Vb1LOsgMDsMWBCleahRctVB7VLvfqB2aDOoxiatATUzFBcr3bWs29UiaLYqSLcgqd8r4CVSoNkuO8/JOEA5Jw+w++oUxjM1B2GC+9mqBGyfc1aBAWJ+FiA46z4bCa4ZLtDjgbnyNSlweOv2BDtFCGulpi8BOg52nhUUK++Ar9idJn1w9dnlDvlcdFha09EoCcakChgP03OJTqLAVQbbz4lmGwliCkSMOPOiMNPVMGqoAYSg/UZ3AIxkEc4AldyBLGGBAZnwlmnzQ/p4Cc8+MLLs9yCZ+A2ItIMLblBfG9w4ZtvFewIYMFoIObqv7lF6sGXXdInorCEbtMsPpY7bKpGNdk8HWrQ5F5dYfV/Jg3SB/OtBp17NIhkHY6spezyYvezMdBEl0rhHCJyApT6BNVTeHyTjSbnk4ZXwffXJuBtNm/3NI6ZDqHB+CW3p4tvuIVEYu1iLlYFmqfu4QMqvIo3F5dDnjbQgRJVpQuKvjztpR3I6NGTqb7gTbvJFyOka5OXofkwhk9tRNg+dMfKL5Br2LGV74ate7Ae6gof5BhCdoGtPrZt3JrN7S0mTmd6Zsj9fgquhWhlPq/Ww/g8R7qWi0QeLAYhuYi9oYzRPFFhdy45tn7a3A0Z8iVZmfa4T8t5GMU+x/Hz1LQmFKiSHNujozJKZLnif5LWDrqJgz9RI21YFPCLlw7cw2vfaffe/ri4IBPNYYJ6+Hbxxkn7s2GmPO3eN9j7imo9QNrCaOGQ1VKsQmBqtJudqsHUEH3QIgQKv9BzvrxsyWUtZbbVkBkGJvkaAMwz4/xqimXXfKB1tk55583Thhq7bW/yIq94ODxkume3md/VTjPOKIbk76Ufi7Eteb1Es69kJf1nK7Tsu7KHUQekZJQMLorZPMBpm1kBoQfkb/PDXhV6n4FPOCVm95VqgLPezDDIdVrOpvY/3U83hvJR7916jzrXri0xNlsTkN/8frMAZLa5Rgm2b6zKOP76vbjs9whH7PwQbp4lYmDSSznTwJ7fpSNnEc7yHhwMDDKoUBMu+5EO1xS+mmig6TlPA0ADEYCBsNlDc+vLONAjfWJ9mjs/keEMOkhki7fhWC6zdw9lutXOxXY/XKDDHKHmzRxGVLVmB62xdprgCALjAUvWHQfde4NOtUBCKRNY00KLNz99A9jheTL08eWG+Ju0vmVE8VtuzU37oSQZEO9qVI03CXTTTAgrUifKO7V/O+2/U5NzTHbjdIctwsOwx6Ra7p2Dy7GWEF4zoIfXaQO5WlVfTYlU+IHkDJ+DlybJkhcwrBlV/t+GJRxqQ6qjttewih5UrVVs9Uw1cCFyqo0dkzpBABZrIGBU7n+P3wR2nB/HrqYV+McZmxNuLN38MRsW2lhckEEA2Rj6RdImoDEfCMuy/jJLob/vazsz4uQhqY7WkSg4tQ2CBP7ADygJEDLOgdv0EBN0/t7QU2y8qOp9wZTs8PsVRw56PnRWmoTc5gnVttfAPxEbDF+o6Snqpq8G3cCFJl7/GYrouzUbp5UcKAw4O4MxuBwg/K20s82p/FjoTrxxTZebucJw7a+/Ajrzw/mPyD+T4PwG5FS0zu6X6woA6FrqNxryrhPfAeZs5JALwFIAAEvete+c0uCDKrakLClQMua7s2qpfal1RdECREW4iCgeZjwrzKhJkgtKas+ImMkxhwgGSIDkHSsl/9JUt1g2m/XtBMRoEWfDVPesCsAzKEUVVn/Frip9+91zSeI3rDyc1MOJ6V2Te5E7b33xyUns6r13sRUmSw+LOH7+kwwJaYX8nSUw4bx2Bt97TI0sNmioIhe3FDMLVRrkmj/d8r5mOOF93cEwn1iYFn8HX6kOk+xA65JFzpiakc6JHqxLGzku9l2Lk87fZHRjjuTZbgWi34X0uMxo/ZQP+T6c3hpSjGqGTRCXAxoj91yvXQ3tKzBf6bIJ4znj3lrJNrNyGWRY4oQG5uc5YoMoD3QJ/cKh4w947VMPka41geo+WvafA3DN32CHmgD/bHNdhx8peeiXc2mD2BAoA1C/SzEbSP/gS+tbsaC0Ai86l3t3BMtYtZJtRgeuxXHG2ZOWxr2bXG3Kk+cRNF93TycZNJNw3cQr6L4Oh8aNwrkqCogXQbCZrF2wmNvIc/iZo6GB3HQSc7q9kA+gnpooer0ZKTyVEu3DimtMjVDxEuH9uF2YQlwYQ6/YfW0EqXyqHbyaYajYeyyZ4niK2pN5eoQ1affzfRzocf9xLZggcdlXSm/K4nRK8NeKbqj2LbofA19EY1g/oLlAM6Jq+BQ8Ti+2iE4S8TdiVc4wmNxRQpn/IWt/MIaSeqNdLLZBxuP5YiESUzK3AU/LfOoGQw9A84h3hJYHHP5jAafB1aWhEKBH5IfgPpXzuZyxR/HSW5woxGiRPlbHu/D6jDA5zupRrP/KOOdrtPggp7pPOCzh2whMERDqSQpzjjBl5EFJ7aqf62KDd1yPNaWMel2h7r7u/0V3lkdhlaurbV4hvE39UvbN2ruSyogphbfJTzLFxQiEsh51Ow1jS6huvTKCbTUUVPi5Tqc4mw8sVDuXc5iJkOaNEbGGjHgKyS2rcYBPDoqqXlDjwl8sjexUnZWWxeZX4YM4XX3bfyXgpgx1Q4qg8yyvWtDE9AjYxYbwbIB32vP6rk9iyiMIF5JBgKs6POmMqIoS0Afr0bB7J0FhZLUhi95HbvXCuFDNJhr8mm52FcCVtFfc1/lvpjjLXEaO7zVs13yWthstBdo+Bag0uY6d4hMKOt0BfvXHVZqBUP5rrWyN+6+ELZMEuUcLOy4K7fVnHAN5CDf0wSVe/+yc/6+1Op1qPEt13O/GHcNhFdpJS2Wt0/L4KDmZ1UBT/eVSYP/2UkjK3fBz6WY9cmsP7sN/iPw480LF28ZahfNvDKwjveNEqXQEEPDfbH/e80M9ZjPONkr5wmb7R5N646NGxNAeuZECZeruIWZwBlIrumWugJVBseWi1TT7CO5W6xXOG+uo9Y7Tob5FrNbRVCEz+1H5mXtB+f85oMbeL06iMmuwZJpqvDENBecN8OxulCCsxepgkRY+5Jw59OehHQZ7NUOAmsV/6wwA//Unj8TQSJXVn8qJvpKuljXtu9v2yC0ssZiLE9ZIonokcUfyZdNeXh4M1cT5hMt4ED2yWeW4oQjEJ1Jf9YFgb+K7OxP5eBa8BARJvIaIU+JjsjiogAFXYYADmaRjqRwjYagbWTc2Y7KtZUNkWtjFWYcJ7z8I12x4D+YjRihf0jDchLaKuFmnoobF9ZxYD/vKxmbqPLHkza/+Uhd9n69th0WXIbx9L6D0SDJxD89e9Z1FzZZ1rpNyvsKXpuTCTV3lWieciUsYlfdI31fEuG93qCJ7Fnb3A59Wcg7lCbe1NGkSI+CdtlkMsv1KF7BhmxktHMSjbGtCwHOse2hx9VLrfG0JbjJR8gep6S/PmqyICf4xue2YFCgPNRIvzvEgIfQq6CgytdjUurZwzDirajelrFBXCqm3JKr8THITojBksQaNjx+KFxhv3jLQnduJqxWqxDW8Rupk9COhaxcSCqyCR7tCCklVDq5ooVOuRkLWXsLIZ9GpLNt2nStKVI39CvJ9JDEG4BorU337BzuG0hN7/0y2BQ4zXH51BXcNxvtIuFK03Mt275ZhIsH2nPIrKDMif0xQC34k7tcffN+wLvhpOYjACXClOyE400ePZ8ip90DduZcrytWz9amvNyofubD1aVkh/uSuSrRPj5PypIww81K9EAAAW8vWDyxZCTVpSxTKRQ/NWdqtL/bhbPk8q2Fa35cfCBny/9twS5mlqfOBOLLLhTB/UhU+xsrXycAhVbOOWOi5qoAl3pyWXwIN9vwjmYpHPosWPyW+C6qP/JrknPfYxXo6OS5XMsltJjy3bb6Jlb2ZzBcjRw0IxfcN2Nx7J18dVJbJiiRvlhN0XzE+EaWwiCGUugK6y8YbvUGWCMsDoQnn78YBRi1fIQEQxeu7te/gFYWl84BNEQ4QPIPjTsM9OOccbw4P9FtnuV6Yz+/ROudBaLgPG4/GvPHKg9QxUbydyAVh+rghXJkKa4+yDUgWRWlXaLezTO7zZALTpBbnwgJ6ao2A0bAdkxEb3DMsfUL0psS9pKeXK3tHMXWgYVOnH2bfUDjYUrDV4tVmdhAgEOSxuOYJFGBf4x2BzVw8KEIQlsmZBEU8nxzx1NmTz42Y2lSuKRo+8V/OhlSxecRf2ruLxMRx2lkJhzIvwQkaY9mwqKAK8dV9/DORu24AVg;" vertex="1" parent="1">
          <mxGeometry x="-960" y="390" width="626" height="417" as="geometry" />
        </mxCell>
        <mxCell id="A1asgnqgY_s7y4sJz10g-4" value="&lt;font style=&quot;font-size: 28px;&quot;&gt;&lt;b&gt;Wall of Confusion&lt;/b&gt;&lt;/font&gt;" style="rounded=0;whiteSpace=wrap;html=1;rotation=-90;" vertex="1" parent="1">
          <mxGeometry x="-565" y="465" width="450" height="100" as="geometry" />
        </mxCell>
        <mxCell id="A1asgnqgY_s7y4sJz10g-5" value="&lt;font style=&quot;font-size: 28px;&quot;&gt;Devs focus on &lt;b&gt;CHANGE&lt;/b&gt;&lt;/font&gt;" style="rounded=0;whiteSpace=wrap;html=1;rotation=0;" vertex="1" parent="1">
          <mxGeometry x="-910" y="290" width="450" height="100" as="geometry" />
        </mxCell>
        <mxCell id="A1asgnqgY_s7y4sJz10g-6" value="&lt;span style=&quot;font-size: 28px;&quot;&gt;Ops focus on &lt;b&gt;STABILITY&lt;/b&gt;&lt;/span&gt;" style="rounded=0;whiteSpace=wrap;html=1;rotation=0;" vertex="1" parent="1">
          <mxGeometry x="-240" y="643.23" width="450" height="100" as="geometry" />
        </mxCell>
      </root>
    </mxGraphModel>
  </diagram>
</mxfile>
